<?xml version="1.0" encoding="UTF-8"?>
<svg version="1.1" xmlns="http://www.w3.org/2000/svg" width="1522" height="1085">
<path d="M0 0 C502.26 0 1004.52 0 1522 0 C1522 358.05 1522 716.1 1522 1085 C1019.74 1085 517.48 1085 0 1085 C0 726.95 0 368.9 0 0 Z " fill="#FEFEFE" transform="translate(0,0)"/>
<path d="M0 0 C2.70277562 -0.00041066 5.40531002 -0.01940275 8.10801315 -0.03782368 C11.38214413 -0.05617568 14.65624686 -0.05237625 17.93041992 -0.05108643 C19.71811798 -0.06490105 19.71811798 -0.06490105 21.54193115 -0.07899475 C28.66166009 -0.03973131 34.56094063 0.94196364 41.25854492 3.31219482 C42.95918363 3.70163648 44.66631346 4.0665505 46.38354492 4.37469482 C49.33473612 4.92918882 52.23223103 5.53891075 55.13354492 6.31219482 C58.44434318 7.17326937 61.75300779 7.72795376 65.13354492 8.24969482 C77.25967441 10.21485903 88.39801086 14.66851119 99.25854492 20.31219482 C99.97268555 20.6396167 100.68682617 20.96703857 101.42260742 21.30438232 C103.25854492 22.31219482 103.25854492 22.31219482 104.25854492 24.31219482 C105.49604492 25.02375732 105.49604492 25.02375732 106.75854492 25.74969482 C109.25854492 27.31219482 109.25854492 27.31219482 110.25854492 30.31219482 C112.11975764 31.37588647 112.11975764 31.37588647 114.25854492 32.31219482 C115.50826003 33.20064325 116.73692984 34.11923715 117.94604492 35.06219482 C121.65485646 37.91351798 125.50333497 40.44574335 129.47338867 42.91766357 C131.25854492 44.31219482 131.25854492 44.31219482 132.25854492 47.31219482 C134.18945453 48.22981788 134.18945453 48.22981788 136.50854492 48.81219482 C140.19355525 49.85092257 143.01727197 51.2715691 146.25854492 53.31219482 C147.44283458 54.01075261 148.62919067 54.70581411 149.81713867 55.39813232 C151.11016424 56.16105687 152.40313186 56.92407964 153.69604492 57.68719482 C154.33864258 58.06102295 154.98124023 58.43485107 155.64331055 58.82000732 C167.15465638 65.64500831 167.15465638 65.64500831 169.25854492 71.56219482 C170.60689751 74.96116697 172.14505801 77.76439456 174.25854492 80.74969482 C176.34695267 83.76282042 177.86412405 86.56214805 179.13354492 89.99969482 C182.03023164 97.79752659 186.53909836 104.87416339 190.87182617 111.94500732 C192.19991893 114.21211779 193.32244174 116.47259117 194.38354492 118.87469482 C194.88241211 119.99037842 194.88241211 119.99037842 195.39135742 121.12860107 C199.95667838 132.62416151 197.86787001 148.03649047 193.25854492 159.31219482 C192.08856539 161.82966802 190.85693895 164.30099497 189.57885742 166.76531982 C188.25404547 169.32087424 187.00793876 171.90661327 185.75854492 174.49969482 C182.27732163 181.41876168 178.53989133 186.70587413 172.25854492 191.31219482 C171.59854492 191.31219482 170.93854492 191.31219482 170.25854492 191.31219482 C169.98655273 191.89227295 169.71456055 192.47235107 169.43432617 193.07000732 C165.19922098 201.14625444 159.52558657 204.36326209 151.30541992 207.83172607 C148.47265329 209.20816012 147.03103 210.22981284 145.00854492 212.56219482 C140.97258012 217.16155573 135.66027579 219.80151597 130.38647461 222.76043701 C126.37870655 225.01627401 122.79594357 227.34307863 119.25854492 230.31219482 C118.26854492 230.93094482 117.27854492 231.54969482 116.25854492 232.18719482 C113.73791108 233.9726438 112.49568051 235.13591015 110.69604492 237.49969482 C107.98311174 240.63000234 107.13524197 240.68354125 103.25854492 241.31219482 C102.97624023 241.88196045 102.69393555 242.45172607 102.40307617 243.03875732 C97.42142849 252.93404384 85.79971528 258.08278318 76.21899414 262.42156982 C74.37890504 263.25751566 72.55437717 264.12747774 70.73120117 264.99969482 C63.33135808 268.5192397 55.82009187 271.72850474 47.92651367 273.97625732 C42.42198695 275.57652254 38.34293475 278.08321583 33.73901367 281.48797607 C31.40397928 283.20523759 29.01883277 284.76206772 26.57104492 286.31219482 C23.69763368 288.19306332 21.50841723 290.04238755 19.25854492 292.62469482 C14.63972326 297.52607969 8.45115511 300.12173634 2.51245117 303.10125732 C-1.11037025 304.92970976 -4.51737944 306.98962166 -7.9140625 309.2074585 C-9.76945028 310.32911911 -11.61237905 311.177424 -13.61645508 311.99969482 C-16.77663266 313.09528902 -16.77663266 313.09528902 -18.74145508 315.31219482 C-20.38105776 316.04834297 -22.02429237 316.77770682 -23.68676758 317.46063232 C-25.87273008 318.36660157 -28.02382277 319.33530094 -30.17895508 320.31219482 C-43.21007354 326.08186512 -56.30395844 328.76024889 -70.42895508 330.43719482 C-71.85263097 330.61207663 -73.27629626 330.78704467 -74.69995117 330.96209717 C-83.31093954 332.00263173 -91.88788389 332.80036306 -100.56176758 333.03875732 C-103.8990226 333.32574486 -106.59529377 334.20152466 -109.74145508 335.31219482 C-111.74109917 335.34992396 -113.74199569 335.35869388 -115.74145508 335.31219482 C-116.07145508 335.64219482 -116.40145508 335.97219482 -116.74145508 336.31219482 C-112.78145508 336.31219482 -108.82145508 336.31219482 -104.74145508 336.31219482 C-104.74145508 337.30219482 -104.74145508 338.29219482 -104.74145508 339.31219482 C-112.25320463 339.7360553 -118.26467721 339.60436135 -125.14770508 336.46453857 C-131.68811167 333.55878564 -138.63737225 331.28881518 -145.80395508 330.87469482 C-152.97630757 330.40437663 -159.81143547 327.26554123 -165.74145508 323.31219482 C-167.12421713 322.8158187 -168.52210171 322.36049584 -169.92895508 321.93719482 C-174.34789103 320.50519921 -178.89902511 318.97837072 -182.74145508 316.31219482 C-183.23645508 314.82719482 -183.23645508 314.82719482 -183.74145508 313.31219482 C-185.59324092 312.24534418 -185.59324092 312.24534418 -187.74145508 311.31219482 C-192.9228075 307.82999036 -197.5432626 303.93020655 -201.74145508 299.31219482 C-201.74145508 298.65219482 -201.74145508 297.99219482 -201.74145508 297.31219482 C-202.79333008 296.97188232 -202.79333008 296.97188232 -203.86645508 296.62469482 C-207.48274043 294.97378195 -209.82915484 293.02131132 -212.74145508 290.31219482 C-212.74145508 289.65219482 -212.74145508 288.99219482 -212.74145508 288.31219482 C-213.41563477 288.12141357 -214.08981445 287.93063232 -214.78442383 287.73406982 C-218.95239564 285.72991957 -221.81014125 282.81700325 -225.05395508 279.56219482 C-226.05144775 278.5643396 -226.05144775 278.5643396 -227.0690918 277.54632568 C-233.04641624 271.36069389 -236.85246224 264.94434328 -240.74145508 257.31219482 C-241.59782418 255.96681951 -242.4702166 254.63134583 -243.36645508 253.31219482 C-248.48885117 245.25778749 -251.58440016 235.91496873 -254.74536133 226.95672607 C-255.79282504 224.17581262 -256.98786116 221.50608813 -258.24145508 218.81219482 C-262.32641938 209.928024 -265.14347922 201.43886262 -266.70288086 191.79388428 C-267.33261571 187.94086326 -267.33261571 187.94086326 -268.7487793 184.32879639 C-275.01031725 171.6086037 -272.55211451 144.44165788 -268.54003906 131.05462646 C-267.34225916 127.57907003 -266.05748749 124.15019434 -264.6862793 120.73944092 C-263.44056228 117.53920356 -262.42867185 114.28409534 -261.40820312 111.00653076 C-254.92021901 90.37183069 -244.95971399 79.50711147 -226.17895508 69.12469482 C-224.36964793 68.18104756 -222.55713819 67.24351504 -220.74145508 66.31219482 C-219.39567383 65.57549561 -219.39567383 65.57549561 -218.02270508 64.82391357 C-213.0614855 62.18656196 -208.25196462 60.10540477 -202.85424805 58.51873779 C-193.53096042 55.75837497 -185.43766345 51.5416099 -177.05395508 46.68719482 C-168.82654037 41.92690167 -161.58861444 38.07187884 -152.22583008 36.19500732 C-147.03947316 34.88097519 -142.4602563 32.52405572 -137.67504883 30.17303467 C-133.37736255 28.06505543 -129.16798345 26.2656412 -124.57348633 24.88641357 C-122.43826017 24.25321664 -122.43826017 24.25321664 -119.30395508 22.81219482 C-115.57851204 21.24358723 -111.88076939 20.17462464 -107.97583008 19.15594482 C-105.69360558 18.47493859 -105.69360558 18.47493859 -104.28833008 16.81610107 C-102.13575493 14.72331968 -100.14903537 14.41920344 -97.24145508 13.74969482 C-96.16508789 13.4996167 -95.0887207 13.24953857 -93.97973633 12.99188232 C-91.13510761 12.39481912 -88.29360512 11.86430518 -85.42895508 11.37469482 C-80.95657619 10.60671057 -76.61235039 9.51843236 -72.24145508 8.31219482 C-66.82036999 6.81863056 -61.47415633 5.63008077 -55.91333008 4.80438232 C-53.46421232 4.38526287 -53.46421232 4.38526287 -50.74145508 2.31219482 C-47.6946299 1.65195666 -44.579633 1.47138061 -41.47583008 1.20672607 C-40.51408875 1.12284134 -39.55234741 1.0389566 -38.5614624 0.95252991 C-25.72473722 -0.05543072 -12.8684145 -0.02242569 0 0 Z " fill="#FEFEFE" transform="translate(638.741455078125,306.68780517578125)"/>
<path d="M0 0 C0.66 0.33 1.32 0.66 2 1 C1.49945194 9.26767315 0.57010499 17.50154418 -5 24 C-8.66461524 29.42363056 -10.84162467 35.4072734 -10 42 C-8.22401218 45.10797869 -6.21217675 47.74281607 -3.9375 50.5 C-1.03606034 54.24379311 0.69544243 58.26398587 2.5 62.625 C3.79283415 65.9014699 3.79283415 65.9014699 5.5625 68 C11.91643933 76.84026341 9.84222691 92.14514023 8.27734375 102.2265625 C6.38903638 112.75789375 4.07450826 124.58922191 -1.12109375 134.0390625 C-4.7690372 142.17802966 -1.4149043 152.06413793 1.41796875 159.90625 C3.16378269 163.32028614 5.28089856 165.32822469 8 168 C9.36328125 170.67578125 9.36328125 170.67578125 10.3125 173.3125 C10.63863281 174.19550781 10.96476562 175.07851563 11.30078125 175.98828125 C11.53152344 176.65214844 11.76226563 177.31601562 12 178 C14.79310605 177.71889511 17.58398875 177.42563948 20.375 177.125 C21.1690625 177.04636719 21.963125 176.96773437 22.78125 176.88671875 C27.3593122 176.53523142 27.3593122 176.53523142 31 174 C33.7746582 173.78881836 33.7746582 173.78881836 37.30078125 173.83984375 C39.2334082 173.8562793 39.2334082 173.8562793 41.20507812 173.87304688 C42.57423057 173.89376442 43.94337157 173.91525227 45.3125 173.9375 C54.942508 174.0651437 64.40819351 173.92454839 74 173 C73.36537842 172.22430664 72.73075684 171.44861328 72.0769043 170.64941406 C66.90951048 164.05760053 67.39820447 157.06585655 68 149 C68.54500388 146.63011216 69.21955122 144.50027533 70.1484375 142.2578125 C72.67367992 135.56244498 73.31750022 129.46252356 73.25 122.375 C73.25773437 121.55515625 73.26546875 120.7353125 73.2734375 119.890625 C73.25272673 113.4495765 71.90913493 108.45866869 68.875 102.75 C67 99.2189781 67 99.2189781 67 97 C66.2575 96.773125 65.515 96.54625 64.75 96.3125 C61.45033483 94.7376598 60.14021949 92.92496664 58 90 C55.66182091 87.21645347 52.86991013 85.78791955 49.7109375 84.03515625 C46.0728927 81.83405609 43.418221 79.01829282 42 75 C41.60966992 71.32988336 41.59465625 69.58641567 43.72265625 66.5078125 C44.88087891 65.32832031 44.88087891 65.32832031 46.0625 64.125 C46.88105469 63.26261719 47.69960937 62.40023437 48.54296875 61.51171875 C49.35378906 60.68285156 50.16460938 59.85398437 51 59 C56.23304134 53.62741089 59.14850909 49.30165427 61 42 C61.39350297 40.64515433 61.78911482 39.29091813 62.1875 37.9375 C62.455625 36.968125 62.72375 35.99875 63 35 C63.66 35.33 64.32 35.66 65 36 C64.31935384 46.35051572 60.82584421 54.61109411 53.125 61.734375 C51.93757052 62.73379481 50.73583191 63.71665465 49.515625 64.67578125 C47.09906941 66.78715327 46.07057997 68.61181017 45.5 71.75 C46.21472044 76.39568288 48.53561386 78.92406906 52 82 C52.969375 82.474375 53.93875 82.94875 54.9375 83.4375 C58.6912281 85.3526674 60.60786854 87.791258 63.19140625 91.0625 C64.93864237 93.13651215 64.93864237 93.13651215 67.51171875 94.37890625 C70.70694272 96.46056708 71.63973382 98.50932806 73.25 101.9375 C74.00023437 103.49791016 74.00023437 103.49791016 74.765625 105.08984375 C80.15116399 117.78676319 77.82334321 134.50579771 73 147 C72.67 147.66 72.34 148.32 72 149 C71.27060544 158.98153189 71.27060544 158.98153189 75 168 C75.556875 168.94875 76.11375 169.8975 76.6875 170.875 C77.120625 171.57625 77.55375 172.2775 78 173 C78.62003906 172.86722656 79.24007813 172.73445312 79.87890625 172.59765625 C90.89294544 170.40126124 101.8954099 169.86214988 113.09375 170.11328125 C113.86367783 170.12817093 114.63360565 170.14306061 115.42686462 170.15840149 C118.59038752 170.22132841 121.75280397 170.28613815 124.91503906 170.39770508 C135.31682251 171.15030216 135.31682251 171.15030216 144.5625 167.28125 C146.30927606 165.29741983 146.96969178 164.10360799 147.71875 161.54296875 C147.6465625 160.76566406 147.574375 159.98835937 147.5 159.1875 C147.4484375 158.41792969 147.396875 157.64835938 147.34375 156.85546875 C147.14910035 155.23854952 146.95152365 153.62195855 146.74438477 152.0065918 C146.26732034 148.0859195 145.94761316 144.26055154 145.96484375 140.30859375 C145.95856217 127.9602719 143.39134361 119.48850958 137 109 C132.11789442 100.88500597 132.11789442 100.88500597 132.35546875 96.37109375 C134.5915943 88.14486219 141.16666383 79.07883094 148 74 C148.66 74 149.32 74 150 74 C150.3403125 72.9790625 150.3403125 72.9790625 150.6875 71.9375 C152.08562547 68.80836205 153.81090901 66.36076623 155.87890625 63.6484375 C158.63316758 59.5986177 158.19131184 55.12892024 158.1875 50.4375 C158.1884668 49.22827881 158.1884668 49.22827881 158.18945312 47.99462891 C158.13774263 42.15016808 157.58948137 36.64833557 156 31 C156.99 31 157.98 31 159 31 C161.47119598 37.29519523 162.49771276 42.81319706 162.4375 49.5625 C162.45748047 50.36107422 162.47746094 51.15964844 162.49804688 51.98242188 C162.4900567 61.78636606 157.36496833 68.87443797 151 76 C149.81414746 77.02655891 148.6065385 78.02872127 147.375 79 C143.87866535 81.80492465 142.05123326 84.98066874 140.04296875 88.94921875 C139 91 139 91 137 94 C136.14301311 101.28438853 139.1869108 106.20115356 143.01171875 112.10546875 C149.26068415 122.16642997 150.00530532 130.85372608 149.95385742 142.55297852 C150.01376833 145.73015841 150.36920629 148.83500763 150.75756836 151.98632812 C152.1258462 163.3514395 152.1258462 163.3514395 149.25 167.5625 C147.2067151 168.86793202 145.22898635 170.04472014 143 171 C147.81870201 173.73720573 152.10999626 174.76205129 157.5 175.5625 C162.54842999 176.33884029 167.1514825 177.3402649 172 179 C174.28744126 179.45908044 176.57945547 179.89582544 178.875 180.3125 C184.0552894 181.3820488 187.48881481 182.66153052 191.71484375 185.7265625 C196.95202131 188.64505803 203.19947195 189.64805401 209 191 C208.98066406 189.7315625 208.96132812 188.463125 208.94140625 187.15625 C208.94243676 181.89651358 209.39389552 176.72785583 209.9375 171.5 C210.06801758 170.14261719 210.06801758 170.14261719 210.20117188 168.7578125 C210.33168945 167.47003906 210.33168945 167.47003906 210.46484375 166.15625 C210.543396 165.38087891 210.62194824 164.60550781 210.70288086 163.80664062 C211 162 211 162 212 161 C213.02610366 146.23989355 210.9117281 134.1103359 202 122 C201.44054688 121.20722656 200.88109375 120.41445313 200.3046875 119.59765625 C196.64444424 114.61802297 192.5513389 110.59815722 187.8203125 106.62890625 C185.10878346 104.20249507 184.76295597 102.34173991 184.5625 98.8125 C184.62269132 94.12510082 185.988792 91.86472883 189.2109375 88.55859375 C191.48185284 86.5802199 193.84160153 84.8472634 196.38671875 83.23828125 C200.79371696 79.85567003 201.61875228 76.14782445 202.625 70.8125 C203.9133758 64.0866242 203.9133758 64.0866242 205 63 C207.68400245 50.56551988 207.61619478 37.65933149 208 25 C208.99 25 209.98 25 211 25 C211.46520155 55.61384056 211.46520155 55.61384056 207.98046875 66.0546875 C207.14872616 68.553229 206.61920533 70.85201203 206.1875 73.4375 C204.39509171 81.54407384 199.5082011 85.73095146 192.98828125 90.51953125 C190.91404177 91.98938997 190.91404177 91.98938997 189 94 C188.28742718 99.21100545 188.28742718 99.21100545 190.16796875 103.94140625 C192.41256815 106.61299885 194.70652709 108.77989532 197.5 110.875 C200.52002108 113.44201792 202.33639855 116.24246937 204.453125 119.5703125 C205.96847503 121.95048351 207.57125788 124.2501536 209.1875 126.5625 C214.7551346 134.92852686 216.17895712 143.42935435 216.125 153.3125 C216.12886719 154.04017578 216.13273437 154.76785156 216.13671875 155.51757812 C216.12673611 160.87326389 216.12673611 160.87326389 215 162 C214.71233793 164.03283708 214.48414964 166.07414864 214.28125 168.1171875 C214.15363281 169.36371094 214.02601563 170.61023438 213.89453125 171.89453125 C213.76433594 173.20808594 213.63414062 174.52164063 213.5 175.875 C213.24266059 178.45603783 212.98238247 181.03678486 212.71875 183.6171875 C212.54762695 185.34364502 212.54762695 185.34364502 212.37304688 187.10498047 C212 190 212 190 211 193 C211.58265625 193.02578125 212.1653125 193.0515625 212.765625 193.078125 C219.96234913 193.57601158 226.25433647 195.50804526 233 198 C233.33 195.69 233.66 193.38 234 191 C235.32 191 236.64 191 238 191 C239.20272819 193.40545638 239.10071472 194.94996953 239.0625 197.625 C239.05347656 198.44226563 239.04445313 199.25953125 239.03515625 200.1015625 C239.01775391 201.04128906 239.01775391 201.04128906 239 202 C240.32 202.66 241.64 203.32 243 204 C243 205.87012215 242.97005835 207.7407786 242.89453125 209.609375 C242.73894389 215.5661484 243.0800333 220.8768931 244.48828125 226.67578125 C246.57427035 236.21405531 246.45801533 245.71653516 246.375 255.4375 C246.37001495 256.81840317 246.37001495 256.81840317 246.3649292 258.22720337 C246.29366732 275.05871089 245.73909941 291.74308935 241 308 C240.71720706 310.2695028 240.56911404 312.50680079 240.44140625 314.7890625 C240 317 240 317 238.53125 319.17578125 C236.35183131 323.19547439 236.2636969 327.05411549 235.9375 331.5625 C235.80813871 333.25188159 235.67166568 334.94073692 235.52734375 336.62890625 C235.47312256 337.37213135 235.41890137 338.11535645 235.36303711 338.88110352 C234.96089353 341.22824817 234.09958728 342.90091022 233 345 C232.6522569 347.01194223 232.36642172 349.03505028 232.125 351.0625 C230.75555496 360.51060919 228.42252506 367.90141967 222 375 C221.30686092 376.65583225 220.63525576 378.32110979 220 380 C219.51402344 380.46019531 219.02804687 380.92039062 218.52734375 381.39453125 C216.77384162 383.23772658 216.36351391 384.57186839 215.6875 387 C214.33732151 390.80254351 214.33732151 390.80254351 211.4375 392.5 C210.303125 392.995 209.16875 393.49 208 394 C206.32725326 395.27802267 204.68371036 396.59470419 203.0625 397.9375 C193.16781045 405.99439431 181.71514597 411.25597679 169 413 C168.24332031 413.11085938 167.48664063 413.22171875 166.70703125 413.3359375 C160.14187509 414.10830881 153.54005628 414.13359709 146.9375 414.1875 C145.55449707 414.20707764 145.55449707 414.20707764 144.14355469 414.22705078 C138.6781101 414.23386555 133.69656875 413.67832873 128.36450195 412.49243164 C124.80892319 411.75194611 121.23656763 411.46145753 117.625 411.125 C106.44149067 409.93238987 96.0204143 407.44186913 88.125 398.9375 C85.89816224 396.60048016 84.20738543 395.55814403 81.125 394.625 C76.57157892 393.17381427 74.08815077 390.36366366 70.8828125 386.92578125 C68.51371197 384.50261411 65.85071747 382.81409293 63 381 C60.625 378.875 60.625 378.875 59 377 C59 376.34 59 375.68 59 375 C58.11634766 374.59394531 58.11634766 374.59394531 57.21484375 374.1796875 C53.30143159 372.09529513 50.26633525 368.96752224 47 366 C45.9454616 365.06233229 44.89076364 364.12484401 43.8359375 363.1875 C35.74581063 355.93484826 28.74209822 348.93582485 24 339 C23.39671875 338.25363281 22.7934375 337.50726562 22.171875 336.73828125 C19.81417102 333.76570843 17.89227193 330.68792037 15.9375 327.4375 C13.33739665 323.07440719 13.33739665 323.07440719 10.390625 318.94921875 C8.66931068 316.53647761 7.81114185 314.16542886 6.8125 311.375 C3.85864247 303.43819132 0.38763859 295.75963123 -3.08911133 288.04101562 C-4.42767821 285.04170736 -5.71735083 282.02365135 -7 279 C-7.29003906 278.32453125 -7.58007812 277.6490625 -7.87890625 276.953125 C-9.81402952 272.1319036 -10.7664046 267.34933208 -11.5703125 262.22265625 C-11.77794553 260.03537496 -11.77794553 260.03537496 -13 259 C-14.21497831 251.00814267 -14.30057948 242.9416319 -14.50268555 234.87402344 C-14.56166716 232.53305506 -14.62702276 230.19233271 -14.69335938 227.8515625 C-14.81979995 223.23474977 -14.91701954 218.61778332 -15 214 C-15.01532776 213.21687439 -15.03065552 212.43374878 -15.04644775 211.62689209 C-15.08730941 209.32156895 -15.11427112 207.01650616 -15.13671875 204.7109375 C-15.14973526 204.02084595 -15.16275177 203.33075439 -15.17616272 202.61975098 C-15.20529735 196.92430393 -14.2091659 191.77412952 -11 187 C-7.98987743 184.23628127 -4.8568941 183.0708117 -1 181.8125 C0.03125 181.46832031 1.0625 181.12414062 2.125 180.76953125 C5 180 5 180 9 180 C8.73445313 179.48050781 8.46890625 178.96101562 8.1953125 178.42578125 C5.15058824 172.41411765 5.15058824 172.41411765 4 169.25 C3.13427386 166.89033253 3.13427386 166.89033253 1.125 165.3125 C-4.40364101 159.29603772 -6.17996295 150.41390562 -6.1875 142.5 C-6.19974609 141.82324219 -6.21199219 141.14648438 -6.22460938 140.44921875 C-6.23559396 136.73642956 -6.11344616 135.17016924 -4 132 C-1.47366837 125.00482126 0.37278679 117.77024596 2.1875 110.5625 C2.35427246 109.90096924 2.52104492 109.23943848 2.69287109 108.55786133 C4.43018488 101.50415308 5.20422683 94.9253821 5.25 87.6875 C5.270625 86.88376953 5.29125 86.08003906 5.3125 85.25195312 C5.36898858 76.47503946 2.90269724 70.20083657 -2 63 C-3.1160324 60.37374028 -4.05293832 57.69104112 -5 55 C-6.16925886 51.99333435 -6.88914891 51.0859096 -9.5 49.0625 C-12.36810143 46.69631632 -13.19721977 45.61251105 -14 42 C-13.98799199 35.6237485 -12.63531186 29.6400796 -8.83203125 24.38671875 C-4.45771344 18.31651157 -3.30505364 11.73368247 -1.796875 4.53515625 C-1 1 -1 1 0 0 Z M80 176 C78.88870931 179.33387207 78.65184903 182.35937408 78.37890625 185.84375 C78 188 78 188 76 191 C75.28293018 192.98248715 74.61709587 194.98415349 74 197 C73.62875 198.0828125 73.62875 198.0828125 73.25 199.1875 C72.748739 201.341561 72.748739 201.341561 75 204 C74.67 204.99 74.34 205.98 74 207 C71.9996558 204.27953189 70.98469729 202.67331904 71.0625 199.25 C71.85638049 196.49788096 72.79104011 194.20234307 74 191.625 C76.0024405 187.32157332 76.75063636 183.73790909 77 179 C76.505 178.01 76.505 178.01 76 177 C69.62796407 176.9494037 63.2559797 176.91431043 56.88378906 176.89013672 C54.71482406 176.88006211 52.54587269 176.86640202 50.37695312 176.84912109 C47.26428874 176.82493677 44.15180349 176.81353168 41.0390625 176.8046875 C40.065065 176.79436493 39.0910675 176.78404236 38.08755493 176.77340698 C37.18677216 176.77325592 36.28598938 176.77310486 35.35791016 176.77294922 C34.56293121 176.768508 33.76795227 176.76406677 32.94888306 176.75949097 C30.76356509 176.82631697 30.76356509 176.82631697 29 179 C25.40736307 179.63399475 21.81138684 180.02164413 18.1875 180.4375 C14.91722344 180.70046833 14.91722344 180.70046833 13 183 C13.48533203 183.97839844 13.48533203 183.97839844 13.98046875 184.9765625 C15.27007542 188.80091332 15.32993079 192.38683476 15.3125 196.375 C15.32861328 197.10460937 15.34472656 197.83421875 15.36132812 198.5859375 C15.3659637 203.77778355 14.32180738 207.35638524 12 212 C11.67 211.34 11.34 210.68 11 210 C11.30421875 209.3090625 11.6084375 208.618125 11.921875 207.90625 C13.35774442 204.03564548 13.29239954 200.59155556 13.25 196.5 C13.25773437 195.75363281 13.26546875 195.00726562 13.2734375 194.23828125 C13.25858403 190.0421752 12.91574106 186.83148212 11 183 C4.30332279 183.43204369 -2.32751319 184.14026481 -8 188 C-12.31551165 194.06834157 -12.52543257 200.82939083 -12 208 C-11.94457031 209.1034375 -11.88914062 210.206875 -11.83203125 211.34375 C-11.51559013 220.43851211 -11.51559013 220.43851211 -7.07421875 228.0625 C-0.50282845 233.39704924 6.02285704 236.30261745 14 239 C14.8146875 239.35320312 15.629375 239.70640625 16.46875 240.0703125 C19.538528 241.19779269 22.44408515 241.59321113 25.6875 242 C30.68788983 242.6635836 35.59783053 243.45152272 40.5234375 244.53515625 C48.01805888 245.94187541 55.35391733 246.17280315 62.9609375 246.24609375 C65.31380539 246.27906201 67.66666988 246.31227311 70.01953125 246.34570312 C73.68307948 246.39278428 77.34661707 246.43719311 81.01025391 246.47680664 C97.60728894 246.66461697 113.67066206 247.47094315 130.0625 250.125 C151.81418295 253.22523987 174.22150784 249.81744692 192.734375 237.421875 C196.57716465 235.01019322 200.61832505 232.96005199 204.63452148 230.85400391 C217.13050753 224.28503843 226.02307587 214.46697117 231 201 C221.38183405 196.58918846 221.38183405 196.58918846 211 196 C208.0130363 198.86421176 207.43190384 201.74769829 206.8125 205.75 C206.65394531 206.73484375 206.49539063 207.7196875 206.33203125 208.734375 C206.22246094 209.48203125 206.11289063 210.2296875 206 211 C205.67 211 205.34 211 205 211 C204.75367154 206.97663517 204.83574206 203.93869168 206.5625 200.3125 C208.06107658 196.85925832 208.09708134 196.33483667 207 193 C205.46279297 192.61908203 205.46279297 192.61908203 203.89453125 192.23046875 C202.53374653 191.88323403 201.17307535 191.53555416 199.8125 191.1875 C199.13896484 191.02185547 198.46542969 190.85621094 197.77148438 190.68554688 C193.70955527 189.63538959 190.51381019 188.26190192 187 186 C181.34707692 183.60017416 175.5156328 182.47283021 169.484375 181.46484375 C167 181 167 181 164.0625 180 C161.02975106 179.00971463 158.21341856 178.53435785 155.0625 178.0625 C150.23999723 177.31179907 146.35412172 176.17706086 142 174 C138.47612355 178.11118919 136 181.46508112 136 187 C137.34469852 188.49621826 137.34469852 188.49621826 139 190 C139.9521672 191.32289896 140.88909555 192.65686626 141.8125 194 C144.49831953 197.64077759 146.81986058 199.171189 151 201 C153.10034665 202.57286233 155.02854562 204.26324257 157 206 C156.67 206.66 156.34 207.32 156 208 C155.11248047 207.29423828 155.11248047 207.29423828 154.20703125 206.57421875 C149.47899757 202.76687389 149.47899757 202.76687389 144.3125 199.625 C141.05857941 197.33846121 139.39318888 194.32187527 137.33203125 190.9609375 C136.14397374 188.86841148 136.14397374 188.86841148 134 188 C134.63156995 182.94744036 136.13459373 178.70406799 138 174 C131.1101377 173.10225166 124.3819209 172.84274951 117.4375 172.875 C116.38554443 172.87838379 115.33358887 172.88176758 114.24975586 172.88525391 C96.907916 172.75910058 96.907916 172.75910058 80 176 Z M233 203 C231.39566007 204.9359733 231.39566007 204.9359733 230.125 207.5 C227.41184211 212.33323856 224.43575917 216.66009368 221 221 C220.55140625 221.61875 220.1028125 222.2375 219.640625 222.875 C215.59714248 228.145157 210.96232354 230.3016664 205 233 C202.28058173 234.31119831 199.57682581 235.65298291 196.875 237 C196.17850342 237.34562988 195.48200684 237.69125977 194.7644043 238.04736328 C190.57033754 240.14864319 186.58381883 242.41293105 182.65234375 244.9765625 C177.50527765 248.1645798 171.87284692 249.77268657 166 251 C164.74123047 251.28037109 164.74123047 251.28037109 163.45703125 251.56640625 C151.09211031 254.00528031 139.19185461 253.57919517 126.82055664 251.61523438 C108.08569049 248.66334232 89.47537886 248.44328923 70.53051758 248.32836914 C39.6294793 248.10701015 39.6294793 248.10701015 28 244 C25.86139744 243.70268244 25.86139744 243.70268244 23.8125 243.625 C15.273068 242.79398145 2.66709531 238.86155762 -3.40625 232.53515625 C-5.63790364 230.3855487 -8.21151698 229.30129207 -11 228 C-11.02932237 231.66664954 -11.04690637 235.3332684 -11.0625 239 C-11.07087891 240.02996094 -11.07925781 241.05992187 -11.08789062 242.12109375 C-11.11257379 249.87160599 -10.93370626 256.75201982 -8 264 C-7.71276843 265.51782171 -7.44420565 267.03921837 -7.1875 268.5625 C-5.17335485 278.96891661 0.11132334 288.37011628 4.69262695 297.84033203 C7.04140366 302.76199973 9.02064616 307.6408564 10.75 312.8125 C12.46646199 317.86847307 14.32169339 321.05895721 18 325 C19.84211703 327.80393035 21.6017369 330.64944747 23.3515625 333.51171875 C24.84297289 335.96101554 24.84297289 335.96101554 26.5859375 337.51953125 C28.4374733 339.45801763 29.02336285 341.51537522 30 344 C31.53035876 346.31170309 31.53035876 346.31170309 33.3125 348.5 C33.88613281 349.2321875 34.45976563 349.964375 35.05078125 350.71875 C37.24520255 353.28697052 39.59155287 355.63187694 42 358 C42.77859375 358.80179688 43.5571875 359.60359375 44.359375 360.4296875 C49.02975066 365.20690182 53.75296212 369.48327384 59.10546875 373.4765625 C61.4647437 375.37371143 63.13822434 377.62463105 65 380 C65.928125 380.61875 66.85625 381.2375 67.8125 381.875 C70.52160773 383.68107182 72.21138154 385.21159794 74.375 387.5625 C77.39788483 390.70497148 79.86432862 391.85687747 83.96484375 393.12890625 C86.44537137 394.19062921 88.0234328 395.60791823 90 397.4375 C100.43719476 407.02679887 114.12453546 408.12768518 127.7277832 409.35400391 C133.81569678 409.90784839 133.81569678 409.90784839 136 411 C153.49700082 412.29615482 172.09126917 411.84091171 188 404 C189.19625 403.54625 190.3925 403.0925 191.625 402.625 C197.29268139 399.89611637 202.70191052 396.34906374 207.11328125 391.83984375 C209 390 209 390 212 389 C212.75578279 387.29127369 213.5042055 385.57797002 214.1796875 383.8359375 C215.35249367 381.21108561 217.19057181 379.21800875 219 377 C219.33 376.175 219.66 375.35 220 374.5 C221 372 221 372 222.9296875 369.79296875 C225.36628478 366.50586109 226.14777821 363.77476482 227.125 359.8125 C227.29112793 359.14976074 227.45725586 358.48702148 227.62841797 357.80419922 C228.73805436 353.31000818 229.71866191 348.79570087 230.5703125 344.24609375 C230.99165123 342.04364127 231.48689222 339.87018156 232 337.6875 C233.12442693 332.77691678 233.77671473 327.81160124 234.4375 322.8203125 C235 320 235 320 237 317 C237.40727235 314.82505251 237.72999323 312.63371577 238 310.4375 C238.53885457 306.31189468 239.10337456 302.25033403 240 298.1875 C242.7280359 284.93601916 243.34952154 271.62572566 243.31567383 258.13427734 C243.31250224 255.50186085 243.33613533 252.87056117 243.36132812 250.23828125 C243.39637282 240.4749436 242.68499319 231.28901494 240.70019531 221.72436523 C239.80267805 216.95043713 239.50905999 212.29511919 239.30859375 207.44140625 C239.23089668 204.8223286 239.23089668 204.8223286 237 203 C235.68 203 234.36 203 233 203 Z " fill="#050505" transform="translate(1071,513)"/>
<path d="M0 0 C3.49440783 2.28480512 4.49251058 6.26404795 6 10 C6.35496552 10.61051208 6.70993103 11.22102417 7.07565308 11.85003662 C8.28382662 14.66015997 8.23989175 16.90576262 8.22705078 19.96191406 C8.22689972 21.16285706 8.22674866 22.36380005 8.22659302 23.60113525 C8.21627045 24.89291687 8.20594788 26.18469849 8.1953125 27.515625 C8.19158034 28.85512073 8.18873432 30.19461921 8.18673706 31.53411865 C8.17911657 35.05228265 8.15948187 38.5702804 8.1373291 42.08837891 C8.11683643 45.68129223 8.10772804 49.27423253 8.09765625 52.8671875 C8.07623434 59.91152617 8.04211765 66.95575221 8 74 C8.804375 73.979375 9.60875 73.95875 10.4375 73.9375 C13 74 13 74 14 75 C14.38024079 80.5275745 13.38903361 84.79900884 11.625 89.9375 C11.17734352 91.27916811 10.73202694 92.62161922 10.2890625 93.96484375 C10.07016357 94.62629395 9.85126465 95.28774414 9.62573242 95.96923828 C8.98616402 98.04490351 8.46481807 100.12498775 7.96484375 102.23828125 C7.19073763 105.25635491 6.42495793 107.55787083 4.9375 110.25 C3.52857445 112.82328288 2.61684531 115.12562805 2 118 C2.9075 117.360625 3.815 116.72125 4.75 116.0625 C8 114 8 114 10.0625 113.5625 C13.14413508 112.66783175 14.78372444 110.26781685 17 108 C23.2601626 103 23.2601626 103 26 103 C26.268125 102.4225 26.53625 101.845 26.8125 101.25 C28 99 28 99 29.5 97.0625 C31.15877117 94.78168964 32.03287359 92.64347886 33 90 C33.33394775 89.23155762 33.66789551 88.46311523 34.01196289 87.67138672 C35.02330478 84.93699015 35.43968952 82.58881634 35.74609375 79.6953125 C35.85953125 78.65149414 35.97296875 77.60767578 36.08984375 76.53222656 C36.20457031 75.4078418 36.31929688 74.28345703 36.4375 73.125 C36.56382812 71.95420898 36.69015625 70.78341797 36.8203125 69.57714844 C37.52899336 62.91309256 38.16505863 56.24577435 38.75390625 49.5703125 C38.88013167 48.16909383 39.00651394 46.76788927 39.13305664 45.36669922 C39.37658847 42.66849845 39.60352123 39.97054352 39.82202148 37.27001953 C40.90947906 25.05459032 40.90947906 25.05459032 44 20 C47.83100699 17.38659988 52.13492352 16.98533769 56.6875 17.0625 C61.81911057 18.51484262 64.92196368 20.6524546 68.25 24.8125 C72.56959682 32.68033706 72.36590233 40.24230731 72.375 49.0625 C72.39949219 50.31611328 72.42398438 51.56972656 72.44921875 52.86132812 C72.48434634 63.87382632 72.48434634 63.87382632 68 69 C67.04670797 70.98961362 67.04670797 70.98961362 66.4375 72.875 C66.20160156 73.54917969 65.96570313 74.22335937 65.72265625 74.91796875 C65.48417969 75.60503906 65.24570312 76.29210937 65 77 C64.22106665 79.01628201 63.43656933 81.0302665 62.6484375 83.04296875 C60.71357979 88.88250918 60.34808787 94.90324428 61 101 C63.37258326 105.38015372 66.3575336 107.3037142 71 109 C76.21621297 109.7727909 76.21621297 109.7727909 80.890625 107.828125 C82.70095865 106.30114792 84.35412838 104.70207211 86 103 C86.928125 102.113125 87.85625 101.22625 88.8125 100.3125 C92.53765137 96.37448284 93.4417195 93.40722115 94.33984375 88.25390625 C95 86 95 86 96.49609375 84.0546875 C101.0455431 77.83907618 100.31770904 67.04144212 100.75390625 59.6171875 C101 57 101 57 102 55 C102.26954936 52.83420864 102.48875881 50.6620679 102.68359375 48.48828125 C102.80780833 47.15949264 102.93216183 45.83071701 103.05664062 44.50195312 C103.24757857 42.41337076 103.43642032 40.32463315 103.62231445 38.2355957 C103.80363963 36.21508087 103.99321474 34.19546035 104.18359375 32.17578125 C104.29243896 30.96833252 104.40128418 29.76088379 104.51342773 28.5168457 C105.83537458 18.96208187 105.83537458 18.96208187 109.875 15.625 C114.68407089 13.12428314 118.51059396 12.81950146 123.9375 12.75 C125.14277344 12.72421875 126.34804688 12.6984375 127.58984375 12.671875 C131.28518791 13.02744076 133.09541173 13.72866431 136 16 C142.02790446 27.62524431 141.7356911 44.77234337 138.95703125 57.40625 C137.23141953 62.08300994 134.60034945 66.25844619 132.03125 70.5078125 C127.89509983 77.43586403 125.13776362 85.07779496 122.7734375 92.76953125 C122 95 122 95 120.5703125 97.9140625 C117.67354831 104.57377144 117.07278817 112.10544626 115.89453125 119.21679688 C115.69214844 120.38404297 115.48976563 121.55128906 115.28125 122.75390625 C115.10658203 123.80908447 114.93191406 124.8642627 114.75195312 125.95141602 C113.92445444 129.30627838 112.72746096 132.01215862 111 135 C110.34 135.33 109.68 135.66 109 136 C105.29765229 142.94326981 103.94399809 150.43252052 102.75 158.125 C102.49089844 159.7028125 102.49089844 159.7028125 102.2265625 161.3125 C101.80748445 163.8735325 101.39884027 166.43575201 101 169 C100.01 169.33 99.02 169.66 98 170 C97.96132813 170.99580078 97.96132813 170.99580078 97.921875 172.01171875 C97.86515625 172.89472656 97.8084375 173.77773438 97.75 174.6875 C97.70359375 175.55761719 97.6571875 176.42773438 97.609375 177.32421875 C96.81400415 180.81671256 95.52252407 182.46901109 93 185 C90.125 186.51171875 90.125 186.51171875 87 187.6875 C82.87874249 189.23958567 82.87874249 189.23958567 78.890625 191.08984375 C76.82733168 192.08312339 75.00066021 192.4783009 72.75 192.875 C68.79679307 193.70181452 65.59603696 195.02271627 62.046875 196.91796875 C59.81571264 198.09741908 57.55187814 199.15315933 55.25 200.1875 C54.53328125 200.51105469 53.8165625 200.83460938 53.078125 201.16796875 C51.06734489 201.97303673 49.11151069 202.52919018 47 203 C46.93941406 204.05960938 46.87882812 205.11921875 46.81640625 206.2109375 C46.73199873 207.59897221 46.64735083 208.98699232 46.5625 210.375 C46.52318359 211.07367188 46.48386719 211.77234375 46.44335938 212.4921875 C46.11328125 217.7734375 46.11328125 217.7734375 45 220 C44.71210854 222.68522842 44.47703858 225.35454974 44.28125 228.046875 C44.2187204 228.8742366 44.1561908 229.70159821 44.09176636 230.55403137 C43.88856989 233.28562227 43.69358263 236.01771188 43.5 238.75 C43.43274719 239.67851776 43.36549438 240.60703552 43.29620361 241.56369019 C42.17345162 257.21315933 41.54897822 272.84184917 41.29101562 288.52832031 C41.27716827 289.29705978 41.26332092 290.06579926 41.24905396 290.85783386 C41.21334853 292.92670425 41.18525597 294.99570208 41.15771484 297.06469727 C41 300 41 300 40 301 C39.85177381 303.76567919 39.76476847 306.5093906 39.71875 309.27734375 C39.70034058 310.11785782 39.68193115 310.95837189 39.66296387 311.82435608 C39.60403551 314.52866388 39.55140373 317.23303938 39.5 319.9375 C38.98447717 346.58328511 38.98447717 346.58328511 36.9375 353.6875 C34.99755834 360.79089542 34.44978328 370.48243797 38 377 C38.91884735 381.41183627 39.12866177 385.62140686 39.1328125 390.12109375 C39.13376923 390.78407974 39.13472595 391.44706573 39.13571167 392.13014221 C39.13638835 393.52434383 39.13456999 394.91854868 39.13037109 396.31274414 C39.12502409 398.42797037 39.1303291 400.54298348 39.13671875 402.65820312 C39.13605771 404.0208338 39.13477602 405.38346433 39.1328125 406.74609375 C39.13168457 407.96997803 39.13055664 409.1938623 39.12939453 410.45483398 C38.91740831 416.26285635 38.72889708 420.4648549 35 425 C33.69399435 427.97638278 32.54146075 430.99242426 31.37890625 434.02734375 C28.91384863 439.34153312 26.00257191 442.14138748 21 445 C19.515 446.2375 19.515 446.2375 18 447.5 C11.01748752 453.3187604 5.49802334 453.52923782 -3.29223633 453.50097656 C-5.42861716 453.50000404 -7.5614026 453.54166071 -9.69726562 453.5859375 C-21.0999087 453.685742 -21.0999087 453.685742 -24.91796875 450.62890625 C-27.44997786 447.43182908 -27.85176547 446.07644968 -28 442 C-28.04898438 441.10925781 -28.09796875 440.21851563 -28.1484375 439.30078125 C-28.38065688 432.32526825 -27.42863523 426.53418527 -25 420 C-24.01 420 -23.02 420 -22 420 C-22.144375 420.57105469 -22.28875 421.14210938 -22.4375 421.73046875 C-24.53360062 430.8863527 -24.61078942 439.7610582 -23 449 C-18.6076385 449.14964803 -14.21667234 449.25781326 -9.82250977 449.32958984 C-8.33168658 449.35954481 -6.84103632 449.40032569 -5.35083008 449.45263672 C2.82891305 449.73233293 9.5960232 449.94961052 16.32055664 444.59228516 C17.42552802 443.54465856 18.50990398 442.4747981 19.57055664 441.38232422 C21 440 21 440 23.5234375 438.71875 C26.83657252 436.41941339 27.37052066 434.28903964 28.625 430.5 C30.72425449 424.24450341 30.72425449 424.24450341 32.5859375 422.59375 C37.10923561 417.49566815 35.22181974 406.15351032 35.24023438 399.64624023 C35.24996299 397.57039644 35.28107735 395.4955355 35.3125 393.41992188 C35.36365309 386.83715517 35.13008007 381.12274193 32.68115234 374.96118164 C29.92252392 367.01850704 31.70167899 356.84133049 34 349 C35.73823343 338.43282113 35.34375556 327.44028161 35.55224609 316.76147461 C35.6037377 314.1937441 35.66098766 311.62618962 35.71875 309.05859375 C35.73232544 308.26392197 35.74590088 307.46925018 35.7598877 306.65049744 C35.88697201 301.11302799 35.88697201 301.11302799 37 300 C37.12457402 297.5964542 37.18687766 295.21775838 37.2109375 292.8125 C37.23702813 291.24893189 37.26375141 289.68537425 37.29101562 288.12182617 C37.31095581 286.87059464 37.31095581 286.87059464 37.33129883 285.59408569 C37.59814573 269.75415074 38.32368811 253.98580202 39.5 238.1875 C39.56580261 237.28443115 39.63160522 236.3813623 39.69940186 235.45092773 C39.88727847 232.8977656 40.08234842 230.34529348 40.28125 227.79296875 C40.36718918 226.64878731 40.36718918 226.64878731 40.4548645 225.48149109 C40.88289299 220.23421402 40.88289299 220.23421402 42 218 C42.23939061 214.46233882 42.38290534 210.92570224 42.5234375 207.3828125 C43.0313703 203.77732227 43.35939325 202.4484628 46 200 C49.07421875 198.4375 49.07421875 198.4375 52.6875 197 C56.59214273 195.42092386 60.43205076 193.85025846 64.125 191.8125 C67.2621823 190.17716029 70.30005285 189.39611222 73.75 188.625 C80.23325145 187.10729228 86.52874346 184.86730511 92 181 C94.03448048 177.1455174 94.49339697 173.30612579 95 169 C95.99 168.67 96.98 168.34 98 168 C97.97679687 167.00355469 97.95359375 166.00710938 97.9296875 164.98046875 C98.13873628 153.14598496 101.06287351 143.14499284 107 133 C107.66 133 108.32 133 109 133 C109.14099121 132.29504395 109.28198242 131.59008789 109.42724609 130.86376953 C112.7109375 114.4453125 112.7109375 114.4453125 113.37329102 111.15454102 C113.77528204 109.13111834 114.1672986 107.10567354 114.54663086 105.07788086 C114.71300049 104.19753174 114.87937012 103.31718262 115.05078125 102.41015625 C115.19169189 101.64324463 115.33260254 100.87633301 115.4777832 100.08618164 C116.18955604 97.24275064 117.48018337 94.91770437 118.8828125 92.36328125 C120.31901373 89.32516326 121.21120385 86.21504421 122.1875 83 C124.00808362 77.09759359 126.5228998 72.04430424 129.6875 66.75 C133.34981107 60.50597471 135.66696953 55.35442285 136 48 C136.03416016 47.29439941 136.06832031 46.58879883 136.10351562 45.86181641 C136.75686622 31.60668545 136.75686622 31.60668545 133 18 C130.08999203 16.54499601 127.4910667 16.79102616 124.25 16.75 C122.43242187 16.71132812 122.43242187 16.71132812 120.578125 16.671875 C116.71170239 17.02643777 114.36285664 18.13174631 111 20 C110.34 20 109.68 20 109 20 C108.92652344 21.02480469 108.92652344 21.02480469 108.8515625 22.0703125 C108.29203273 29.61431738 107.66055983 37.15172566 107 44.6875 C106.8755249 46.15823975 106.8755249 46.15823975 106.74853516 47.65869141 C106.66651855 48.57956543 106.58450195 49.50043945 106.5 50.44921875 C106.4278125 51.27768311 106.355625 52.10614746 106.28125 52.9597168 C106 55 106 55 105 57 C104.80469424 58.43649452 104.65661854 59.87960539 104.53515625 61.32421875 C104.45716797 62.18853516 104.37917969 63.05285156 104.29882812 63.94335938 C104.14297435 65.75306642 103.98927964 67.56296087 103.83789062 69.37304688 C103.13538458 77.08919045 101.48232436 83.03535127 98 90 C97.86722656 90.64453125 97.73445312 91.2890625 97.59765625 91.953125 C95.5670197 101.28398387 86.62390924 107.91739384 79 113 C73.72876565 114.10082002 69.71138097 113.23140088 65.1875 110.375 C61.52623547 107.61624998 58.85864168 105.28295692 57 101 C55.64577021 91.31568228 57.82094928 81.2295387 63 73 C64.01965427 70.67518826 65.02059602 68.34205301 66 66 C66.35344482 65.40364746 66.70688965 64.80729492 67.07104492 64.19287109 C68.98444427 59.67614233 68.33164718 54.47229661 68.31567383 49.63769531 C68.31252147 47.63861644 68.33683142 45.63955627 68.36132812 43.640625 C68.36229492 41.73410156 68.36229492 41.73410156 68.36328125 39.7890625 C68.36626221 38.63100098 68.36924316 37.47293945 68.37231445 36.27978516 C67.80964189 31.32310112 65.82986032 28.0373254 62.75 24.1875 C59.33188683 21.46854634 57.34576757 21.07492703 53 21 C50.55434979 21.48626963 48.36663 22.17892428 46 23 C43.57324708 35.2225089 42.79428754 47.63266251 41.75 60.03051758 C39.26394177 89.34609682 39.26394177 89.34609682 35 95 C34.4534375 95.79019531 33.906875 96.58039063 33.34375 97.39453125 C28.94425441 103.16420873 24.35653255 107.28164472 18.3203125 111.30859375 C15.77985654 112.95579577 15.77985654 112.95579577 14 116 C11.35546875 117.640625 11.35546875 117.640625 8.1875 119.25 C7.14980469 119.79140625 6.11210937 120.3328125 5.04296875 120.890625 C1.76786716 122.08462866 0.27142007 122.0400818 -3 121 C-2.50301687 116.62654843 -1.61521783 114.44616143 1 111 C3.56496049 105.71490347 5.29043976 100.33005394 6.4296875 94.58203125 C7.66556084 88.98674168 9.3892579 83.49685291 11 78 C9.824375 77.814375 9.824375 77.814375 8.625 77.625 C6 77 6 77 4 75 C3.7931366 72.55567932 3.7931366 72.55567932 3.85229492 69.43969727 C3.86858444 68.27410782 3.88487396 67.10851837 3.9016571 65.90760803 C3.92766495 64.64001144 3.95367279 63.37241486 3.98046875 62.06640625 C4.00291876 60.07509752 4.02533748 58.0837879 4.04598713 56.09245968 C4.09936245 51.17952027 4.17228659 46.26704279 4.26733398 41.35473633 C4.31968464 38.60414703 4.35815013 35.85399443 4.38215637 33.10301208 C4.40546872 30.51603665 4.44877541 27.92913881 4.5151825 25.34291077 C4.56230966 17.1082283 3.05766269 11.18056595 -1 4 C-4.68853995 4.26797085 -6.50525533 4.51669961 -9.1953125 7.14453125 C-9.83210938 8.02496094 -10.46890625 8.90539062 -11.125 9.8125 C-13.03340948 12.40686389 -14.82966459 14.83092168 -17.1171875 17.1015625 C-21.91355069 21.93772953 -23.8442181 29.03625736 -26.05859375 35.33203125 C-26.87191817 37.6370129 -27.73513717 39.9114187 -28.625 42.1875 C-29.62247877 44.80990388 -30.36959823 47.39153659 -31 50.125 C-32.06935768 54.64104772 -34.02558674 58.4093362 -36.4453125 62.359375 C-42.29394405 72.2932316 -46.65137957 83.53672638 -48 95 C-48.309375 96.03125 -48.61875 97.0625 -48.9375 98.125 C-53.29020723 112.75402356 -54.15347075 130.72493738 -48.62109375 145.125 C-48 147 -48 147 -48 150 C-47.01 150.33 -46.02 150.66 -45 151 C-43.35179805 153.60242414 -43 154.86248779 -43 158 C-42.30777344 158.23460937 -41.61554688 158.46921875 -40.90234375 158.7109375 C-37.42820926 160.2539582 -34.55060895 162.31355874 -31.5625 164.625 C-30.98628906 165.0679541 -30.41007812 165.5109082 -29.81640625 165.96728516 C-25.93825835 169.03785283 -22.94465121 172.19061775 -20.203125 176.3359375 C-18.94473179 178.25796811 -18.94473179 178.25796811 -16.25 180 C-12.64777643 183.2019765 -12.17691593 187.64646678 -11.82763672 192.29296875 C-11.76521938 194.8651926 -11.77580523 197.42726358 -11.8125 200 C-11.81967041 201.00740234 -11.82684082 202.01480469 -11.83422852 203.05273438 C-11.9270425 212.14437973 -12.24949234 221.22768457 -12.57348633 230.31347656 C-12.91812427 240.42075789 -13.10488456 250.52881196 -13.25390625 260.640625 C-13.26426847 261.33673889 -13.2746307 262.03285278 -13.28530693 262.75006104 C-13.39080999 269.86363765 -13.49108991 276.97725544 -13.58051205 284.09105301 C-13.60687646 286.1425726 -13.63505816 288.19405864 -13.66392517 290.24554443 C-13.69933126 292.78118378 -13.73151384 295.31687112 -13.75978088 297.8526001 C-14.06663043 319.06663043 -14.06663043 319.06663043 -16 321 C-16.21475256 322.53439961 -16.37067611 324.07714551 -16.5 325.62109375 C-16.5825 326.55630859 -16.665 327.49152344 -16.75 328.45507812 C-16.8325 329.43927734 -16.915 330.42347656 -17 331.4375 C-17.16296754 333.37401278 -17.32946305 335.31023288 -17.5 337.24609375 C-17.5721875 338.10904053 -17.644375 338.9719873 -17.71875 339.86108398 C-18 342 -18 342 -19 344 C-19.27620053 346.72254806 -19.44599571 349.44499691 -19.62109375 352.17578125 C-20.01131581 355.08434359 -20.91021389 357.29049257 -22 360 C-22.37713127 362.62149094 -22.37713127 362.62149094 -22.5 365.3125 C-22.69268691 368.6122633 -23.11516689 371.43106642 -23.97265625 374.640625 C-25.33369412 379.84730052 -25.58762261 385.08391392 -25.9375 390.4375 C-26.61350318 399.60231877 -27.4126543 408.74218933 -28.4375 417.875 C-28.54763428 418.94419678 -28.65776855 420.01339355 -28.77124023 421.11499023 C-28.88669189 422.10571533 -29.00214355 423.09644043 -29.12109375 424.1171875 C-29.2183374 424.98972168 -29.31558105 425.86225586 -29.41577148 426.76123047 C-30.08449217 429.32377483 -30.98413181 430.33322201 -33 432 C-34.23649997 428.29050008 -33.75136098 425.2617102 -33.29296875 421.46484375 C-33.16478508 420.33665977 -33.16478508 420.33665977 -33.03401184 419.1856842 C-32.75801984 416.7688654 -32.47296523 414.35321634 -32.1875 411.9375 C-32.00654982 410.36921108 -31.82620545 408.80085213 -31.64648438 407.23242188 C-31.28571937 404.08790121 -30.92016996 400.9439832 -30.55224609 397.80029297 C-30.16895994 394.50406589 -29.80388262 391.20642779 -29.45166016 387.90673828 C-29.36322342 387.08428116 -29.27478668 386.26182404 -29.18367004 385.41444397 C-29.01560212 383.84347978 -28.85017784 382.27222981 -28.68778992 380.70066833 C-28.35948648 377.64563278 -27.97519598 374.92558795 -27 372 C-26.54200042 368.79042482 -26.13755483 365.57984986 -25.75 362.36132812 C-25.10222805 357.20445609 -25.10222805 357.20445609 -24 355 C-23.79670732 353.17036589 -23.63527804 351.33591632 -23.5 349.5 C-23.11111111 344.22222222 -23.11111111 344.22222222 -22 342 C-21.79227218 340.4202227 -21.63282567 338.83392388 -21.5 337.24609375 C-21.4175 336.30958984 -21.335 335.37308594 -21.25 334.40820312 C-21.08300691 332.42385557 -20.91634151 330.43948041 -20.75 328.45507812 C-20.6675 327.51986328 -20.585 326.58464844 -20.5 325.62109375 C-20.4278125 324.7592749 -20.355625 323.89745605 -20.28125 323.00952148 C-20 321 -20 321 -19 320 C-17.82884216 311.45465218 -17.81472181 302.78114276 -17.71875 294.171875 C-17.69105212 292.18826574 -17.66334983 290.20465653 -17.63543797 288.22105026 C-17.60690024 286.1458368 -17.58025504 284.07060697 -17.5541687 281.99536133 C-17.46432726 274.87697132 -17.35986597 267.75879076 -17.25390625 260.640625 C-17.24366991 259.94604187 -17.23343357 259.25145874 -17.22288704 258.53582764 C-17.06395685 247.85293208 -16.81892764 237.17723963 -16.4375 226.5 C-16.12661048 217.66506369 -15.89833246 208.84088072 -15.875 200 C-15.87040771 199.09056641 -15.86581543 198.18113281 -15.86108398 197.24414062 C-15.87342466 192.07487937 -16.25389267 187.11616452 -17 182 C-17.7425 181.79375 -18.485 181.5875 -19.25 181.375 C-22.82371889 179.58814055 -24.06522496 177.43960007 -26 174 C-26 173.34 -26 172.68 -26 172 C-26.53625 171.7525 -27.0725 171.505 -27.625 171.25 C-30.57942142 169.69504136 -33.25352127 167.90140835 -36 166 C-36.63292969 165.59007812 -37.26585937 165.18015625 -37.91796875 164.7578125 C-47.43184081 158.24347844 -52.37503431 149.07677831 -55 138 C-55.6160122 134.32480856 -55.88255483 130.72250122 -56 127 C-56.03996094 125.94683594 -56.07992187 124.89367187 -56.12109375 123.80859375 C-56.2478479 117.49325472 -55.79154168 111.63672188 -54.5078125 105.453125 C-54.0539328 103.26053689 -53.71727945 101.09518533 -53.4375 98.875 C-53 96 -53 96 -52 95 C-51.7525 93.80375 -51.505 92.6075 -51.25 91.375 C-48.93298931 80.59660951 -45.43994561 66.85855211 -38.52734375 58.14331055 C-36.93560388 55.90963338 -36.17029153 54.04454797 -35.3515625 51.4375 C-35.07094971 50.56375732 -34.79033691 49.69001465 -34.5012207 48.78979492 C-34.21206787 47.8691626 -33.92291504 46.94853027 -33.625 46 C-31.08384646 38.14851292 -28.40112069 30.52588408 -25 23 C-24.69835937 22.2575 -24.39671875 21.515 -24.0859375 20.75 C-21.93462324 15.81133075 -19.05585383 13.03871875 -14.890625 9.66796875 C-13.10601136 8.09352655 -11.98076128 6.70458099 -10.75 4.6875 C-7.95311885 0.39228966 -5.06861213 -0.64982207 0 0 Z " fill="#040404" transform="translate(194,227)"/>
<path d="M0 0 C2.70277562 -0.00041066 5.40531002 -0.01940275 8.10801315 -0.03782368 C11.38214413 -0.05617568 14.65624686 -0.05237625 17.93041992 -0.05108643 C19.71811798 -0.06490105 19.71811798 -0.06490105 21.54193115 -0.07899475 C28.66166009 -0.03973131 34.56094063 0.94196364 41.25854492 3.31219482 C42.95918363 3.70163648 44.66631346 4.0665505 46.38354492 4.37469482 C49.33473612 4.92918882 52.23223103 5.53891075 55.13354492 6.31219482 C58.44434318 7.17326937 61.75300779 7.72795376 65.13354492 8.24969482 C77.25967441 10.21485903 88.39801086 14.66851119 99.25854492 20.31219482 C99.97268555 20.6396167 100.68682617 20.96703857 101.42260742 21.30438232 C103.25854492 22.31219482 103.25854492 22.31219482 104.25854492 24.31219482 C105.49604492 25.02375732 105.49604492 25.02375732 106.75854492 25.74969482 C109.25854492 27.31219482 109.25854492 27.31219482 110.25854492 30.31219482 C112.11975764 31.37588647 112.11975764 31.37588647 114.25854492 32.31219482 C115.50826003 33.20064325 116.73692984 34.11923715 117.94604492 35.06219482 C121.65485646 37.91351798 125.50333497 40.44574335 129.47338867 42.91766357 C131.25854492 44.31219482 131.25854492 44.31219482 132.25854492 47.31219482 C134.18945453 48.22981788 134.18945453 48.22981788 136.50854492 48.81219482 C140.19355525 49.85092257 143.01727197 51.2715691 146.25854492 53.31219482 C147.44283458 54.01075261 148.62919067 54.70581411 149.81713867 55.39813232 C151.11016424 56.16105687 152.40313186 56.92407964 153.69604492 57.68719482 C154.33864258 58.06102295 154.98124023 58.43485107 155.64331055 58.82000732 C167.15465638 65.64500831 167.15465638 65.64500831 169.25854492 71.56219482 C170.60689751 74.96116697 172.14505801 77.76439456 174.25854492 80.74969482 C176.34695267 83.76282042 177.86412405 86.56214805 179.13354492 89.99969482 C182.03023164 97.79752659 186.53909836 104.87416339 190.87182617 111.94500732 C192.19991893 114.21211779 193.32244174 116.47259117 194.38354492 118.87469482 C194.88241211 119.99037842 194.88241211 119.99037842 195.39135742 121.12860107 C199.95667838 132.62416151 197.86787001 148.03649047 193.25854492 159.31219482 C192.08856539 161.82966802 190.85693895 164.30099497 189.57885742 166.76531982 C188.25404547 169.32087424 187.00793876 171.90661327 185.75854492 174.49969482 C182.27732163 181.41876168 178.53989133 186.70587413 172.25854492 191.31219482 C171.59854492 191.31219482 170.93854492 191.31219482 170.25854492 191.31219482 C169.98655273 191.89227295 169.71456055 192.47235107 169.43432617 193.07000732 C165.19922098 201.14625444 159.52558657 204.36326209 151.30541992 207.83172607 C148.47265329 209.20816012 147.03103 210.22981284 145.00854492 212.56219482 C140.97258012 217.16155573 135.66027579 219.80151597 130.38647461 222.76043701 C126.37870655 225.01627401 122.79594357 227.34307863 119.25854492 230.31219482 C118.26854492 230.93094482 117.27854492 231.54969482 116.25854492 232.18719482 C113.73791108 233.9726438 112.49568051 235.13591015 110.69604492 237.49969482 C107.98311174 240.63000234 107.13524197 240.68354125 103.25854492 241.31219482 C102.97624023 241.88196045 102.69393555 242.45172607 102.40307617 243.03875732 C97.42142849 252.93404384 85.79971528 258.08278318 76.21899414 262.42156982 C74.37890504 263.25751566 72.55437717 264.12747774 70.73120117 264.99969482 C63.33135808 268.5192397 55.82009187 271.72850474 47.92651367 273.97625732 C42.42198695 275.57652254 38.34293475 278.08321583 33.73901367 281.48797607 C31.40397928 283.20523759 29.01883277 284.76206772 26.57104492 286.31219482 C23.69763368 288.19306332 21.50841723 290.04238755 19.25854492 292.62469482 C14.63972326 297.52607969 8.45115511 300.12173634 2.51245117 303.10125732 C-1.11037025 304.92970976 -4.51737944 306.98962166 -7.9140625 309.2074585 C-9.76945028 310.32911911 -11.61237905 311.177424 -13.61645508 311.99969482 C-16.77663266 313.09528902 -16.77663266 313.09528902 -18.74145508 315.31219482 C-20.38105776 316.04834297 -22.02429237 316.77770682 -23.68676758 317.46063232 C-25.87273008 318.36660157 -28.02382277 319.33530094 -30.17895508 320.31219482 C-43.21007354 326.08186512 -56.30395844 328.76024889 -70.42895508 330.43719482 C-71.85263097 330.61207663 -73.27629626 330.78704467 -74.69995117 330.96209717 C-83.31093954 332.00263173 -91.88788389 332.80036306 -100.56176758 333.03875732 C-103.89980771 333.32581237 -106.59528857 334.19866398 -109.74145508 335.31219482 C-113.11645508 335.43719482 -113.11645508 335.43719482 -115.74145508 335.31219482 C-115.74145508 334.32219482 -115.74145508 333.33219482 -115.74145508 332.31219482 C-109.54476037 330.14198677 -103.60158442 329.10023867 -97.05395508 328.87469482 C-87.95259915 328.54185451 -78.95996911 327.49253157 -69.92895508 326.37469482 C-69.2158316 326.28906281 -68.50270813 326.20343079 -67.76797485 326.11520386 C-65.70992015 325.86690831 -63.65334518 325.60879514 -61.59692383 325.34735107 C-60.39704834 325.19661133 -59.19717285 325.04587158 -57.9609375 324.89056396 C-54.9628755 324.35197226 -52.5185508 323.53082036 -49.74145508 322.31219482 C-48.41508374 322.00909825 -47.08102326 321.73778214 -45.74145508 321.49969482 C-39.16397838 320.11321154 -30.56820268 318.13894243 -25.74145508 313.31219482 C-24.08068512 312.57754345 -22.41732082 311.84792705 -20.73852539 311.15545654 C-17.29651053 309.70206787 -13.96231287 308.03497397 -10.61645508 306.37469482 C-9.92680664 306.04018311 -9.2371582 305.70567139 -8.52661133 305.36102295 C-4.50435491 303.36527622 -1.25208885 301.13403336 2.25854492 298.31219482 C4.66826221 296.94369172 7.15216686 295.73218786 9.63354492 294.49969482 C14.68722806 291.90429905 18.5374613 289.46077913 22.32495117 285.17156982 C26.9365065 280.73702369 32.7998973 277.60188889 38.25854492 274.31219482 C38.82299316 273.95665527 39.38744141 273.60111572 39.96899414 273.23480225 C44.29416373 270.59928638 48.49621812 269.24018152 53.38354492 267.99969482 C60.10143877 266.15512551 65.8744161 263.70622232 71.93041992 260.19891357 C75.05608911 258.42696731 78.213103 256.86611652 81.45458984 255.32440186 C89.4229778 251.51347367 95.86882803 247.5735532 101.44604492 240.56219482 C103.25854492 238.31219482 103.25854492 238.31219482 105.50854492 236.99969482 C108.21978207 235.33598112 109.99338988 233.64867394 112.19604492 231.37469482 C115.337185 228.15722797 118.39083449 225.64893654 122.25854492 223.31219482 C123.48873016 222.54298809 124.71781045 221.77201264 125.94604492 220.99969482 C128.26799582 219.54792055 130.59517488 218.10726827 132.93432617 216.68328857 C137.39226678 213.92713442 141.50226721 211.22746087 145.32104492 207.62469482 C148.18323974 204.97951068 150.64941494 203.61164218 154.32104492 202.31219482 C159.6288056 200.40205124 162.64871581 197.56219068 166.25854492 193.31219482 C166.7819043 192.69602295 167.30526367 192.07985107 167.84448242 191.44500732 C168.84930185 190.25656607 169.85076501 189.06527664 170.84838867 187.87078857 C172.25854492 186.31219482 172.25854492 186.31219482 174.94604492 184.18719482 C179.4251678 180.55547357 181.39757648 175.1026977 183.87963867 170.00750732 C184.92857589 167.95717678 186.08126374 165.95956234 187.27807617 163.99188232 C189.43485967 160.23870342 190.55842666 156.51762828 191.50854492 152.31219482 C191.76003296 151.20895874 191.76003296 151.20895874 192.01660156 150.08343506 C195.15603099 135.20984948 193.47042415 122.18081045 185.25854492 109.31219482 C184.54553223 108.40231812 184.54553223 108.40231812 183.81811523 107.47406006 C182.23707188 105.28242905 181.14136878 103.17152286 180.02416992 100.71453857 C179.41508789 99.39594849 179.41508789 99.39594849 178.79370117 98.05072021 C178.36959961 97.12638184 177.94549805 96.20204346 177.50854492 95.24969482 C174.29065102 88.33676695 171.02957634 81.81142456 166.63354492 75.56610107 C165.25854492 73.31219482 165.25854492 73.31219482 164.28979492 70.15203857 C163.53953855 67.3056493 163.53953855 67.3056493 161.66479492 66.06219482 C161.03573242 65.81469482 160.40666992 65.56719482 159.75854492 65.31219482 C156.339264 63.81821285 153.15434421 62.16152178 149.94604492 60.24969482 C149.12491211 59.76371826 148.3037793 59.2777417 147.45776367 58.77703857 C145.25854492 57.31219482 145.25854492 57.31219482 143.74291992 55.71844482 C141.87689568 53.95063238 140.28779805 53.54442038 137.82104492 52.87469482 C134.04833996 51.70724541 131.6807849 50.57695305 129.25854492 47.31219482 C129.25854492 46.65219482 129.25854492 45.99219482 129.25854492 45.31219482 C128.37166992 45.06082764 127.48479492 44.80946045 126.57104492 44.55047607 C123.14996645 43.27160594 121.04236647 41.83292987 118.25854492 39.49969482 C117.40518555 38.78942139 116.55182617 38.07914795 115.67260742 37.34735107 C114.8759668 36.67574951 114.07932617 36.00414795 113.25854492 35.31219482 C112.6062793 34.79528076 111.95401367 34.2783667 111.28198242 33.74578857 C109.9010695 32.64956623 108.57250151 31.48784019 107.25854492 30.31219482 C107.25854492 29.65219482 107.25854492 28.99219482 107.25854492 28.31219482 C106.28916992 28.02344482 105.31979492 27.73469482 104.32104492 27.43719482 C101.25854492 26.31219482 101.25854492 26.31219482 100.25854492 24.31219482 C98.22251878 23.31716389 98.22251878 23.31716389 95.75854492 22.43719482 C92.41096985 21.15696073 89.13292704 19.82381215 85.88354492 18.31219482 C76.50474515 14.16012201 67.38428938 11.85943935 57.27563477 10.3883667 C49.83780034 9.29837775 42.50694988 7.85603811 35.42407227 5.28216553 C29.73694962 3.67018364 23.83078834 4.02731364 17.96948242 4.04656982 C16.67523346 4.04465637 15.3809845 4.04274292 14.04751587 4.04077148 C11.30563578 4.03782996 8.56388631 4.04207663 5.82202148 4.05145264 C2.37414766 4.06269036 -1.07341226 4.05618789 -4.52127457 4.04457855 C-17.04477308 4.00871353 -29.53513003 4.05392381 -42.01489258 5.20281982 C-42.8707193 5.28030457 -43.72654602 5.35778931 -44.60830688 5.43762207 C-48.34546468 5.83615774 -50.56459058 6.19428516 -53.74145508 8.31219482 C-55.91333008 8.80438232 -55.91333008 8.80438232 -58.49145508 9.18719482 C-63.04842836 9.94669037 -67.41829679 11.00250332 -71.86645508 12.24969482 C-78.148536 13.98401164 -84.39680814 15.23334218 -90.84350586 16.18499756 C-96.46810809 17.07084186 -101.23146219 18.63886623 -105.99145508 21.81219482 C-109.42227482 23.68355105 -112.8412315 24.47915407 -116.63208008 25.37078857 C-122.4887311 27.1439706 -127.94012567 29.9324944 -133.46801758 32.53094482 C-148.14720761 39.3969936 -148.14720761 39.3969936 -155.80395508 40.93719482 C-164.29950118 42.90556179 -171.41434368 47.39618242 -178.90423584 51.71902466 C-186.39903081 56.03691571 -193.66391892 59.78308469 -201.9309082 62.37811279 C-209.00607126 64.61339783 -215.4417406 67.90955433 -221.98120117 71.38348389 C-223.55258506 72.2125469 -225.14020983 73.01065798 -226.72973633 73.80438232 C-229.47217036 75.20933406 -232.10435218 76.7185499 -234.74145508 78.31219482 C-235.81266602 78.93610107 -236.88387695 79.56000732 -237.98754883 80.20281982 C-248.71052866 87.02342975 -252.52167228 96.69307194 -256.74145508 108.31219482 C-257.04164551 109.12946045 -257.34183594 109.94672607 -257.65112305 110.78875732 C-260.66086357 119.10831019 -263.22109934 127.49609707 -265.19848633 136.12469482 C-265.74145508 138.31219482 -265.74145508 138.31219482 -266.74145508 140.31219482 C-266.85243532 142.74891052 -266.90556017 145.15608947 -266.90942383 147.59344482 C-266.91275223 148.32156372 -266.91608063 149.04968262 -266.91950989 149.79986572 C-266.92457966 151.34661223 -266.9269182 152.8933697 -266.92675781 154.44012451 C-266.92892088 156.77527743 -266.94700975 159.10993952 -266.96606445 161.44500732 C-266.99581199 169.27438106 -266.73264771 176.69380005 -264.74145508 184.31219482 C-264.51844727 185.37567139 -264.29543945 186.43914795 -264.06567383 187.53485107 C-261.09784406 200.77173599 -257.72894382 213.04220533 -251.35864258 225.05828857 C-249.85430603 228.08512999 -248.78551835 230.96019698 -247.80395508 234.18719482 C-246.21646942 239.2932634 -244.1182344 243.97440563 -241.74145508 248.74969482 C-241.40895752 249.42435791 -241.07645996 250.099021 -240.73388672 250.79412842 C-238.75173572 254.69211491 -236.51288377 257.9098718 -233.74145508 261.31219482 C-232.78844772 263.06373856 -231.87179848 264.83552631 -230.99145508 266.62469482 C-226.41445132 275.16080684 -219.61142116 280.60025045 -212.06958008 286.48797607 C-210.12439714 288.01213787 -208.23840052 289.57524181 -206.36645508 291.18719482 C-203.97205919 293.31063269 -203.97205919 293.31063269 -201.74926758 294.20672607 C-199.3518302 295.52671592 -198.4741347 296.84398471 -196.99145508 299.12469482 C-194.25311692 302.99347514 -191.43131834 305.08129427 -187.28051758 307.30438232 C-186.77262695 307.63696045 -186.26473633 307.96953857 -185.74145508 308.31219482 C-185.74145508 308.97219482 -185.74145508 309.63219482 -185.74145508 310.31219482 C-185.12270508 310.60094482 -184.50395508 310.88969482 -183.86645508 311.18719482 C-181.74145508 312.31219482 -181.74145508 312.31219482 -179.74145508 314.31219482 C-178.24197484 314.9868192 -176.7166275 315.60485253 -175.17895508 316.18719482 C-171.84061435 317.47853006 -168.55757685 318.8204621 -165.30395508 320.31219482 C-156.86122076 324.0628869 -148.71447969 326.64838739 -139.60595703 328.23602295 C-125.30223339 330.75141651 -125.30223339 330.75141651 -121.74145508 334.31219482 C-118.85070548 334.77956153 -116.02484939 335.14918824 -113.11645508 335.43719482 C-111.91375977 335.56674561 -111.91375977 335.56674561 -110.68676758 335.69891357 C-108.70581873 335.91115809 -106.7237279 336.11269413 -104.74145508 336.31219482 C-104.74145508 337.30219482 -104.74145508 338.29219482 -104.74145508 339.31219482 C-112.25320463 339.7360553 -118.26467721 339.60436135 -125.14770508 336.46453857 C-131.68811167 333.55878564 -138.63737225 331.28881518 -145.80395508 330.87469482 C-152.97630757 330.40437663 -159.81143547 327.26554123 -165.74145508 323.31219482 C-167.12421713 322.8158187 -168.52210171 322.36049584 -169.92895508 321.93719482 C-174.34789103 320.50519921 -178.89902511 318.97837072 -182.74145508 316.31219482 C-183.23645508 314.82719482 -183.23645508 314.82719482 -183.74145508 313.31219482 C-185.59324092 312.24534418 -185.59324092 312.24534418 -187.74145508 311.31219482 C-192.9228075 307.82999036 -197.5432626 303.93020655 -201.74145508 299.31219482 C-201.74145508 298.65219482 -201.74145508 297.99219482 -201.74145508 297.31219482 C-202.79333008 296.97188232 -202.79333008 296.97188232 -203.86645508 296.62469482 C-207.48274043 294.97378195 -209.82915484 293.02131132 -212.74145508 290.31219482 C-212.74145508 289.65219482 -212.74145508 288.99219482 -212.74145508 288.31219482 C-213.41563477 288.12141357 -214.08981445 287.93063232 -214.78442383 287.73406982 C-218.95239564 285.72991957 -221.81014125 282.81700325 -225.05395508 279.56219482 C-226.05144775 278.5643396 -226.05144775 278.5643396 -227.0690918 277.54632568 C-233.04641624 271.36069389 -236.85246224 264.94434328 -240.74145508 257.31219482 C-241.59782418 255.96681951 -242.4702166 254.63134583 -243.36645508 253.31219482 C-248.48885117 245.25778749 -251.58440016 235.91496873 -254.74536133 226.95672607 C-255.79282504 224.17581262 -256.98786116 221.50608813 -258.24145508 218.81219482 C-262.32641938 209.928024 -265.14347922 201.43886262 -266.70288086 191.79388428 C-267.33261571 187.94086326 -267.33261571 187.94086326 -268.7487793 184.32879639 C-275.01031725 171.6086037 -272.55211451 144.44165788 -268.54003906 131.05462646 C-267.34225916 127.57907003 -266.05748749 124.15019434 -264.6862793 120.73944092 C-263.44056228 117.53920356 -262.42867185 114.28409534 -261.40820312 111.00653076 C-254.92021901 90.37183069 -244.95971399 79.50711147 -226.17895508 69.12469482 C-224.36964793 68.18104756 -222.55713819 67.24351504 -220.74145508 66.31219482 C-219.39567383 65.57549561 -219.39567383 65.57549561 -218.02270508 64.82391357 C-213.0614855 62.18656196 -208.25196462 60.10540477 -202.85424805 58.51873779 C-193.53096042 55.75837497 -185.43766345 51.5416099 -177.05395508 46.68719482 C-168.82654037 41.92690167 -161.58861444 38.07187884 -152.22583008 36.19500732 C-147.03947316 34.88097519 -142.4602563 32.52405572 -137.67504883 30.17303467 C-133.37736255 28.06505543 -129.16798345 26.2656412 -124.57348633 24.88641357 C-122.43826017 24.25321664 -122.43826017 24.25321664 -119.30395508 22.81219482 C-115.57851204 21.24358723 -111.88076939 20.17462464 -107.97583008 19.15594482 C-105.69360558 18.47493859 -105.69360558 18.47493859 -104.28833008 16.81610107 C-102.13575493 14.72331968 -100.14903537 14.41920344 -97.24145508 13.74969482 C-96.16508789 13.4996167 -95.0887207 13.24953857 -93.97973633 12.99188232 C-91.13510761 12.39481912 -88.29360512 11.86430518 -85.42895508 11.37469482 C-80.95657619 10.60671057 -76.61235039 9.51843236 -72.24145508 8.31219482 C-66.82036999 6.81863056 -61.47415633 5.63008077 -55.91333008 4.80438232 C-53.46421232 4.38526287 -53.46421232 4.38526287 -50.74145508 2.31219482 C-47.6946299 1.65195666 -44.579633 1.47138061 -41.47583008 1.20672607 C-40.51408875 1.12284134 -39.55234741 1.0389566 -38.5614624 0.95252991 C-25.72473722 -0.05543072 -12.8684145 -0.02242569 0 0 Z " fill="#080808" transform="translate(638.741455078125,306.68780517578125)"/>
<path d="M0 0 C1.97265625 0.234375 1.97265625 0.234375 4 1 C5.4375 4.25 5.4375 4.25 6.1484375 6.4140625 C7.17507947 9.53166334 8.36648535 12.56851812 9.5625 15.625 C10.80448915 18.82089731 11.99668652 21.98957191 13.03515625 25.2578125 C13.85185 28.08826881 13.85185 28.08826881 15.875 30.25 C18.43426648 33.56199192 19.6513061 36.88190566 21.0703125 40.79296875 C21.90076481 43.15219837 21.90076481 43.15219837 24 45 C24.6951894 46.6883171 25.39002325 48.37678266 26.08203125 50.06640625 C27.35583767 52.74953042 29.04097117 55.01205349 30.81640625 57.3828125 C32 59 32 59 33.4375 61.5 C34.8067666 63.69082655 36.10367709 65.16106934 37.875 67 C42.18484284 71.8980348 43.93065139 77.91020267 46 84 C46.2990625 84.8559375 46.598125 85.711875 46.90625 86.59375 C48.05841861 89.95808235 49.09280699 93.32755407 50.0625 96.75 C50.8983917 99.8795273 50.8983917 99.8795273 51.9609375 102.3046875 C56.04246985 112.89212104 56.40410127 124.20007426 56.70922852 135.40576172 C56.73557373 136.36111816 56.76191895 137.31647461 56.7890625 138.30078125 C56.80662598 139.15841064 56.82418945 140.01604004 56.84228516 140.8996582 C56.87091489 143.0576498 56.87091489 143.0576498 58 145 C58.1305712 146.80834681 58.20271209 148.62105822 58.24609375 150.43359375 C58.27896484 151.55958984 58.31183594 152.68558594 58.34570312 153.84570312 C58.40520246 156.17377275 58.46262393 158.50189678 58.51757812 160.83007812 C58.72126813 167.67483094 59.2282207 174.40270609 60.015625 181.19921875 C61.11872427 190.93725456 61.35447874 200.58149406 61.3125 210.375 C61.31134186 211.22008118 61.31018372 212.06516235 61.30899048 212.93585205 C61.1999939 253.27029788 61.1999939 253.27029788 52.98828125 262.18359375 C52.33214844 262.78300781 51.67601562 263.38242187 51 264 C49.48522695 266.87406828 49.48522695 266.87406828 48.1875 270.0625 C43.41302587 280.79301003 37.27869989 289.72130011 29 298 C21.02024037 309.96963945 23.60920912 329.87644415 23.71875 343.51342773 C23.75012909 347.45370943 23.75975732 351.39358953 23.765625 355.33398438 C23.77478933 357.86719234 23.78516328 360.40039628 23.796875 362.93359375 C23.80112488 364.09733017 23.80537476 365.26106659 23.80975342 366.46006775 C23.39984654 377.51208105 23.39984654 377.51208105 26 388 C29.12866484 412.34805644 30.45943325 437.36492843 20.9296875 460.48046875 C19.92042353 463.21565893 19.21918392 465.98030777 18.53564453 468.81225586 C17.60209491 472.62517205 16.54647868 476.404321 15.5 480.1875 C15.28730469 480.96802734 15.07460938 481.74855469 14.85546875 482.55273438 C12.49854437 491.07670321 12.49854437 491.07670321 11 494 C7.6838381 495.1053873 5.11463365 495.16753642 1.625 495.1875 C0.50351562 495.20167969 -0.61796875 495.21585938 -1.7734375 495.23046875 C-5.7117075 494.94916375 -8.51551906 494.18403562 -11.61981201 491.70802307 C-13.40021937 489.50471681 -13.36922721 488.3071441 -13.35644531 485.49584961 C-13.35939102 484.57447205 -13.36233673 483.65309448 -13.3653717 482.70379639 C-13.34693459 481.19332733 -13.34693459 481.19332733 -13.328125 479.65234375 C-13.32675034 478.59339905 -13.32537567 477.53445435 -13.32395935 476.44342041 C-13.31484242 472.94118734 -13.28321569 469.43958166 -13.25 465.9375 C-13.23602019 463.50106194 -13.22276376 461.06461963 -13.21020508 458.62817383 C-13.17184726 452.32470645 -13.11046308 446.02169293 -13.04034424 439.71850586 C-13.00140417 436.12942113 -12.96843479 432.54032935 -12.93701172 428.95117188 C-12.5153725 383.49144333 -12.5153725 383.49144333 -9.33984375 363.49707031 C-8.94882269 360.62396445 -8.73711739 357.75926321 -8.53125 354.8671875 C-8.21663504 350.72866375 -7.58503903 346.98922291 -6.47705078 343.00292969 C-5.51007505 338.94301725 -5.27813212 334.77571989 -4.9375 330.625 C-4.85371094 329.67270508 -4.76992188 328.72041016 -4.68359375 327.73925781 C-4.08007802 320.65502045 -3.64836275 313.56639906 -3.42944336 306.45947266 C-3.21546441 301.21546441 -3.21546441 301.21546441 -1 299 C0.02811109 292.39071444 -1.30654058 285.69808556 -2.4375 279.1875 C-4.13905225 269.39047431 -4.61087645 259.66909027 -4.84228516 249.73974609 C-4.97790382 247.38384422 -5.23478679 245.10200451 -5.53222656 242.76318359 C-6.07225963 238.0448236 -5.96921085 233.49861267 -5.6953125 228.765625 C-5.63015945 227.50404572 -5.63015945 227.50404572 -5.56369019 226.21697998 C-5.47122318 224.45550289 -5.37524632 222.69420677 -5.27587891 220.93310547 C-5.12463719 218.24354801 -4.98528053 215.55356653 -4.84765625 212.86328125 C-4.75590241 211.143192 -4.66347799 209.42313837 -4.5703125 207.703125 C-4.52858917 206.90408752 -4.48686584 206.10505005 -4.44387817 205.28179932 C-4.40068451 204.53041687 -4.35749084 203.77903442 -4.31298828 203.00488281 C-4.2766629 202.3503009 -4.24033752 201.69571899 -4.20291138 201.02130127 C-4 199 -4 199 -3.49029541 196.61949158 C-2.94831825 193.72388092 -2.86095895 191.02886269 -2.84228516 188.08325195 C-2.83202301 186.91466141 -2.82176086 185.74607086 -2.81118774 184.54206848 C-2.80388641 183.2868187 -2.79658508 182.03156891 -2.7890625 180.73828125 C-2.76817635 178.74997948 -2.74727255 176.76167771 -2.72536278 174.77338696 C-2.67242777 169.8871598 -2.62810943 165.00092804 -2.59863281 160.11450195 C-2.58164073 157.37039887 -2.5568559 154.62657036 -2.52377319 151.88261414 C-2.49303141 149.30607732 -2.47343692 146.72937559 -2.46670532 144.15266418 C-2.37686544 137.72993172 -1.74738677 132.37022665 0.32446289 126.295578 C1.42979821 122.5394802 1.4109481 118.88923966 1.36328125 115 C1.36377975 114.19763916 1.36427826 113.39527832 1.36479187 112.56860352 C1.3624749 110.89483121 1.35288935 109.2210538 1.33618164 107.54736328 C1.31229434 104.97787821 1.31567448 102.40941385 1.32226562 99.83984375 C1.31669712 98.20572296 1.30959249 96.57160652 1.30078125 94.9375 C1.30169266 94.16986328 1.30260406 93.40222656 1.30354309 92.61132812 C1.39452841 88.34385148 1.39452841 88.34385148 -1 85 C-3.14954088 75.56561513 -3.28542229 65.95210208 -3.23046875 56.32421875 C-3.22927236 54.9789891 -3.22882475 53.6337586 -3.2290802 52.28852844 C-3.22753478 49.50455304 -3.21938581 46.7207098 -3.20581055 43.93676758 C-3.1886065 40.36347622 -3.18500334 36.79032607 -3.18575573 33.2169981 C-3.18541999 29.79438588 -3.17660321 26.37182053 -3.16796875 22.94921875 C-3.16629951 21.02138802 -3.16629951 21.02138802 -3.16459656 19.05461121 C-3.15821671 17.87860855 -3.15183685 16.7026059 -3.14526367 15.4909668 C-3.14145187 14.45175583 -3.13764008 13.41254486 -3.13371277 12.34184265 C-3 10 -3 10 -2 9 C-1.79395915 7.67218122 -1.6337041 6.33704105 -1.5 5 C-1.11111111 1.11111111 -1.11111111 1.11111111 0 0 Z M2 6 C-0.02656627 9.36695523 -0.252796 11.94704832 -0.25878906 15.84741211 C-0.26509338 17.02641586 -0.27139771 18.20541962 -0.27789307 19.42015076 C-0.2738446 20.69302444 -0.26979614 21.96589813 -0.265625 23.27734375 C-0.26849518 25.25354454 -0.26849518 25.25354454 -0.27142334 27.26966858 C-0.27437161 30.06304605 -0.27009276 32.85629562 -0.26074219 35.6496582 C-0.24944745 39.19297934 -0.25584475 42.73599409 -0.26788712 46.27930355 C-0.27519969 49.0326406 -0.27277364 51.78590808 -0.26763153 54.53924751 C-0.2656836 56.4692772 -0.27166537 58.39930982 -0.27789307 60.32933044 C-0.89900026 74.09417764 -0.89900026 74.09417764 4 86 C4.21257092 88.75265169 4.30396086 91.40189584 4.30078125 94.15625 C4.30506638 94.97315308 4.3093515 95.79005615 4.31376648 96.63171387 C4.31951875 98.36677118 4.32000346 100.10185262 4.31567383 101.83691406 C4.31254526 104.46202323 4.33585021 107.08597041 4.36132812 109.7109375 C4.36360451 111.40104026 4.36430304 113.09114602 4.36328125 114.78125 C4.372491 115.55456665 4.38170074 116.3278833 4.39118958 117.12463379 C4.35659472 121.31002443 3.85766324 124.74929537 2.50708008 128.71948242 C0.46831712 135.0053745 0.54088138 141.14718898 0.5234375 147.70703125 C0.49963498 149.66806228 0.47582832 151.62909328 0.4517765 153.59012127 C0.42201093 156.30849239 0.40542108 159.02688335 0.38873291 161.74536133 C0.35698397 166.52435232 0.30592164 171.3031657 0.25234985 176.08195496 C0.2252323 178.61942489 0.20383415 181.15696393 0.18881226 183.6945343 C0.17855011 184.8431041 0.16828796 185.99167389 0.15771484 187.17504883 C0.15121918 188.18191238 0.14472351 189.18877594 0.13803101 190.22615051 C0.00390646 192.9214964 -0.43755513 195.36586044 -1 198 C-1.21498995 200.85440236 -1.39439635 203.69676368 -1.53515625 206.5546875 C-1.57813339 207.37446075 -1.62111053 208.19423401 -1.66539001 209.03884888 C-1.7553135 210.7684853 -1.84345713 212.49821506 -1.92993164 214.22802734 C-2.06171291 216.85928423 -2.19933112 219.490186 -2.33789062 222.12109375 C-2.42482499 223.80727387 -2.51142447 225.4934713 -2.59765625 227.1796875 C-2.63826675 227.95907684 -2.67887726 228.73846619 -2.72071838 229.54147339 C-3.18170266 238.81857085 -3.18170266 238.81857085 -2 248 C-1.88137598 249.74398992 -1.80107273 251.49089811 -1.75390625 253.23828125 C-1.72103516 254.22376953 -1.68816406 255.20925781 -1.65429688 256.22460938 C-1.59345038 258.27138179 -1.53611725 260.31826188 -1.48242188 262.36523438 C-1.27991582 268.23026812 -0.60234855 273.35748857 1 279 C2.21296509 285.82006785 2.6343335 293.10834288 2 300 C1.34 300.66 0.68 301.32 0 302 C-0.43352003 304.66280371 -0.43352003 304.66280371 -0.5625 307.79296875 C-0.67283569 309.56522827 -0.67283569 309.56522827 -0.78540039 311.37329102 C-0.85621826 312.63197998 -0.92703613 313.89066895 -1 315.1875 C-2.62918724 340.88756171 -2.62918724 340.88756171 -5 348 C-5.19034158 349.52203223 -5.34068132 351.04927062 -5.46484375 352.578125 C-5.54283203 353.49335937 -5.62082031 354.40859375 -5.70117188 355.3515625 C-5.85490138 357.23697235 -6.00855149 359.12238867 -6.16210938 361.0078125 C-6.61555449 366.33118442 -7.22898984 371.57999279 -8.02734375 376.86328125 C-9.38650318 386.85996529 -9.4713916 396.86201629 -9.625 406.9375 C-9.6631896 409.04809825 -9.70152295 411.1586939 -9.73999023 413.26928711 C-10.17362136 438.84353027 -10.09581613 464.42317756 -10 490 C-6.04758993 491.68648974 -3.13045326 492.24650309 1.1875 492.1875 C2.75564453 492.17783203 2.75564453 492.17783203 4.35546875 492.16796875 C6.9769107 492.17388569 6.9769107 492.17388569 9 491 C11.73254962 485.1186139 13.29293463 479.01985978 14.41113281 472.66259766 C15.00862978 469.96097996 15.85854371 467.54235049 16.859375 464.96484375 C23.12669583 448.03004421 26.05317138 430.98375681 25 413 C24.93871008 411.4349991 24.88009554 409.86989102 24.82421875 408.3046875 C24.55770205 401.80947372 24.16261596 395.48172218 22.50164795 389.16821289 C20.58590828 380.88804061 20.82722986 372.19584421 20.796875 363.75 C20.79117493 362.49727295 20.78547485 361.2445459 20.77960205 359.95385742 C20.77019611 357.31148672 20.76327709 354.66922828 20.75976562 352.02685547 C20.75324246 348.03987524 20.71904395 344.05326601 20.6875 340.06640625 C20.59269059 317.9462566 20.59269059 317.9462566 22.26171875 307.47265625 C22.36953674 306.77587769 22.47735474 306.07909912 22.58843994 305.36120605 C23.77770718 299.09655958 27.04451521 294.86128008 32 291 C32.66 290.67 33.32 290.34 34 290 C35.03057459 288.23740168 36.00160128 286.43964332 36.9375 284.625 C39.67970041 279.30891839 39.67970041 279.30891839 41.5390625 277.515625 C44.29063182 274.66105576 45.23366733 270.66182663 46.62109375 267.0078125 C48.05743818 263.87470992 49.84551129 261.67071274 52 259 C54.96339123 252.76332041 56.31330766 246.10849357 57.1015625 239.28515625 C57.18621765 238.55263138 57.2708728 237.82010651 57.35809326 237.06538391 C58.28873809 228.28090144 58.30425801 219.51178643 58.25 210.6875 C58.2478952 209.83016266 58.24579041 208.97282532 58.24362183 208.08950806 C58.21461567 198.00182598 58.05668606 188.0179154 56.78442383 177.99731445 C55.755215 169.82450612 55.5680338 161.627966 55.34204102 153.39916992 C55.31037842 152.33674072 55.27871582 151.27431152 55.24609375 150.1796875 C55.21020142 148.75245361 55.21020142 148.75245361 55.17358398 147.29638672 C55.14356025 144.9716839 55.14356025 144.9716839 54 143 C53.88295595 141.52118651 53.8212458 140.03777647 53.7890625 138.5546875 C53.76279785 137.64968506 53.7365332 136.74468262 53.70947266 135.81225586 C53.66765869 134.35831421 53.66765869 134.35831421 53.625 132.875 C53.09169132 115.71840459 53.09169132 115.71840459 47 100 C46.4453125 97.4921875 46.4453125 97.4921875 46.125 94.875 C45.28304856 89.5806952 43.50514105 85.30118899 41.15625 80.5078125 C40.15828232 78.34330151 39.52014226 76.43563194 39 74.125 C37.77490804 70.29658761 35.95454331 68.66629518 33 66 C30.61342934 63.13611521 28.84615854 60.02905489 27.03125 56.77734375 C26.11681478 55.20132851 25.09618179 53.68800583 24.0625 52.1875 C20.87383428 47.25956207 18.41655799 41.97879037 15.8984375 36.68359375 C15.56070313 35.98363281 15.22296875 35.28367187 14.875 34.5625 C14.58367188 33.94503906 14.29234375 33.32757813 13.9921875 32.69140625 C13.04835844 30.9148461 13.04835844 30.9148461 11.44140625 29.46484375 C9.59380765 27.5872029 9.23370044 25.67473113 8.59765625 23.16796875 C6.97385183 17.27769781 4.83982299 11.41341258 2 6 Z " fill="#030303" transform="translate(895,182)"/>
<path d="M0 0 C1.42554199 0.00410889 1.42554199 0.00410889 2.87988281 0.00830078 C12.57377211 0.13995366 22.21763811 0.88954262 31.875 1.6875 C32.64922302 1.75053314 33.42344604 1.81356628 34.22113037 1.87850952 C42.94461871 2.60078281 51.54388737 3.52450186 60.125 5.3125 C61.81239936 5.64634244 63.4998876 5.97973621 65.1875 6.3125 C66.83343571 6.64532744 68.47926951 6.97865927 70.125 7.3125 C71.79156628 7.64633487 73.4582334 7.97966673 75.125 8.3125 C75.95386719 8.48007812 76.78273438 8.64765625 77.63671875 8.8203125 C79.26159502 9.1417166 80.88921341 9.44963454 82.51953125 9.7421875 C95.8513111 12.1974749 107.09668134 15.59279892 116.484375 25.6640625 C118.10737126 27.38387387 118.10737126 27.38387387 120.171875 28.7890625 C127.58696658 34.57283394 129.0667076 45.6928388 131.125 54.3125 C131.46724609 55.54532715 131.80949219 56.7781543 132.16210938 58.04833984 C133.17956361 62.12640207 133.43139656 66.09275086 133.42578125 70.28515625 C133.43006638 71.01190048 133.4343515 71.73864471 133.43876648 72.4874115 C133.44446463 74.01088425 133.44504373 75.53438419 133.44067383 77.05786133 C133.43750269 79.37303302 133.46106628 81.68693773 133.48632812 84.00195312 C133.48860069 85.49218591 133.48930481 86.98242208 133.48828125 88.47265625 C133.497491 89.15513931 133.50670074 89.83762238 133.51618958 90.54078674 C133.46826415 95.57551386 132.26069631 98.86270792 130.125 103.3125 C129.53138051 105.25571592 128.98650726 107.21473978 128.5 109.1875 C128.26023437 110.13367188 128.02046875 111.07984375 127.7734375 112.0546875 C127.0941004 115.08032042 127.0941004 115.08032042 127.00854492 117.26953125 C126.57757548 124.45073207 123.79495955 130.15015652 120.6875 136.5625 C119.6880252 138.671507 118.68929953 140.78086923 117.69140625 142.890625 C117.24740479 143.81262695 116.80340332 144.73462891 116.34594727 145.68457031 C115.53306827 147.43418628 114.7687053 149.20717931 114.05493164 150.99951172 C111.14607025 158.23462665 105.86887114 163.9208189 99.91015625 168.77734375 C97.90550898 170.40020435 97.90550898 170.40020435 95.875 173.1875 C93.88159203 175.60806682 93.04347332 175.63152289 90.125 176.3125 C89.41177153 177.62151771 88.75226511 178.96018321 88.125 180.3125 C85.86479207 184.23019375 83.50089363 187.99123586 80.5625 191.4375 C78.07664621 194.22952409 78.07664621 194.22952409 76.25 197.3125 C73.33571832 201.42678002 69.67569386 205.03715307 65.125 207.3125 C64.73183594 208.23675781 64.33867188 209.16101563 63.93359375 210.11328125 C61.71923117 214.03026388 59.06683467 215.52630341 55.1875 217.5 C51.30235837 219.56158606 47.61134465 221.6121393 44.125 224.3125 C43.114375 224.8075 42.10375 225.3025 41.0625 225.8125 C38.19362966 227.05521937 38.19362966 227.05521937 36.78515625 228.80859375 C34.5572966 230.8267725 32.53396041 231.19076872 29.625 231.875 C26.15442473 232.70066105 24.1346726 233.3060516 21.125 235.3125 C18.3019847 235.91653299 15.47611551 236.32534869 12.62109375 236.75 C9.96667226 237.11458875 9.96667226 237.11458875 8.125 239.3125 C5.45650814 240.06237258 2.82829464 240.71910799 0.125 241.3125 C-0.60992676 241.4775 -1.34485352 241.6425 -2.10205078 241.8125 C-5.1494692 242.49102935 -8.20031362 243.15324286 -11.25195312 243.8125 C-14.64491007 244.55552564 -17.96018864 245.33813457 -21.2890625 246.33984375 C-25.88149614 247.58550386 -30.47903561 248.22780017 -35.1875 248.875 C-36.97569598 249.12318378 -38.76348278 249.3743395 -40.55078125 249.62890625 C-41.33364502 249.73662354 -42.11650879 249.84434082 -42.9230957 249.95532227 C-44.94578664 250.23168012 -44.94578664 250.23168012 -46.875 251.3125 C-49.64660626 251.39933445 -52.39274765 251.4280579 -55.1640625 251.41015625 C-56.39169815 251.40803383 -56.39169815 251.40803383 -57.64413452 251.40586853 C-60.26279325 251.4002629 -62.88136704 251.38770948 -65.5 251.375 C-67.27343627 251.36998572 -69.04687387 251.36542269 -70.8203125 251.36132812 C-75.17190782 251.35029164 -79.5234395 251.33302325 -83.875 251.3125 C-83.875 250.3225 -83.875 249.3325 -83.875 248.3125 C-82.20945068 248.27491577 -82.20945068 248.27491577 -80.51025391 248.23657227 C-76.39896681 248.14255085 -72.28785077 248.04231743 -68.17675781 247.94018555 C-66.39587397 247.8968167 -64.61494802 247.85514306 -62.83398438 247.81518555 C-60.27721452 247.7575301 -57.72065702 247.6938223 -55.1640625 247.62890625 C-53.96555161 247.60383751 -53.96555161 247.60383751 -52.74282837 247.57826233 C-48.67693632 247.55857009 -48.67693632 247.55857009 -44.875 246.3125 C-43.5566302 246.07323697 -42.2307137 245.87465822 -40.90234375 245.69921875 C-40.09313477 245.58763428 -39.28392578 245.4760498 -38.45019531 245.36108398 C-37.57975586 245.24192627 -36.70931641 245.12276855 -35.8125 245 C-26.33925829 243.64606883 -17.14343687 241.66775093 -7.875 239.3125 C-7.21556396 239.15402588 -6.55612793 238.99555176 -5.87670898 238.83227539 C-1.3128111 237.72920018 3.11271663 236.38651372 7.5625 234.875 C8.21500732 234.65473145 8.86751465 234.43446289 9.53979492 234.20751953 C11.4024447 233.57854885 13.26376393 232.94564186 15.125 232.3125 C16.72860995 231.76918738 18.33267134 231.22720217 19.9375 230.6875 C20.62199219 230.45546875 21.30648438 230.2234375 22.01171875 229.984375 C23.54405725 229.49719899 25.09090426 229.05492553 26.64453125 228.640625 C31.69405336 227.27793538 35.43352034 225.72593871 39.5546875 222.49609375 C41.8865181 220.73851994 44.51673733 219.61663133 47.125 218.3125 C49.43628888 216.81743552 51.71037539 215.27732013 53.9765625 213.71484375 C56.125 212.3125 56.125 212.3125 58.32421875 211.30078125 C60.42693936 210.38661351 60.42693936 210.38661351 61.3125 207.5625 C63.22763463 204.12846549 64.24753002 203.40510994 67.5 201.4375 C71.63176739 198.88355964 73.68035124 196.4752262 76.0078125 192.26171875 C77.10593614 190.34576178 78.30439279 188.78873137 79.75 187.125 C82.11762908 184.4806249 82.11762908 184.4806249 83.5625 181.875 C86.65325694 176.80615861 90.55335 172.71127296 95.0625 168.875 C103.41032909 161.73792475 109.97089747 153.68206369 113.1171875 143.0859375 C113.94326117 140.81263398 114.8468716 138.80728168 115.9453125 136.6640625 C120.40430318 127.93571396 123.26828622 119.88400731 124.84545898 110.17651367 C124.97509033 109.38349854 125.10472168 108.5904834 125.23828125 107.7734375 C125.38970581 106.73388916 125.38970581 106.73388916 125.54418945 105.67333984 C126.125 103.3125 126.125 103.3125 127.65332031 100.02636719 C129.23661363 96.03083668 129.57661066 92.65627548 129.55859375 88.4296875 C129.5638356 87.69356232 129.56907745 86.95743713 129.57447815 86.19900513 C129.58086681 84.64765678 129.57960247 83.09625978 129.57104492 81.54492188 C129.56259579 79.2139263 129.59123701 76.88543794 129.62304688 74.5546875 C129.66600881 65.09109255 128.37582283 57.28646234 125.125 48.3125 C124.77041046 46.85918879 124.43420255 45.40113964 124.125 43.9375 C122.99261403 39.83260086 121.3060504 36.94758399 119.125 33.3125 C119.125 32.6525 119.125 31.9925 119.125 31.3125 C118.25875 30.9721875 118.25875 30.9721875 117.375 30.625 C115.125 29.3125 115.125 29.3125 113.3125 26.9375 C108.95568163 21.70931796 102.40655863 19.40426299 96.125 17.1875 C95.39385986 16.92743164 94.66271973 16.66736328 93.90942383 16.39941406 C87.71079315 14.30135431 81.70053851 13.32476512 75.19921875 12.734375 C72.125 12.3125 72.125 12.3125 70.1796875 11.328125 C67.12111775 9.81628444 63.91317716 9.65550771 60.5625 9.3125 C55.98045546 8.82398982 51.48484641 8.20813221 46.9609375 7.3203125 C40.44289704 6.10602967 33.92280653 5.61669476 27.3125 5.1875 C26.04510986 5.1047583 24.77771973 5.0220166 23.47192383 4.93676758 C6.65235605 3.90652273 -9.42283087 3.23431401 -25.875 7.3125 C-27.7621875 7.76496094 -27.7621875 7.76496094 -29.6875 8.2265625 C-35.78971413 9.81675813 -40.97712666 11.54799535 -46.16015625 15.1640625 C-47.875 16.3125 -47.875 16.3125 -51.25 17.75 C-57.03388826 20.24305529 -62.62261945 23.34166702 -67.375 27.5 C-70.49764358 29.76391659 -73.48864752 30.45669402 -77.1796875 31.46484375 C-82.54719544 33.1528861 -87.55346377 35.83242674 -92.2890625 38.8515625 C-95.13439046 40.45904386 -97.79343502 41.30700596 -100.9375 42.1875 C-110.03420245 44.89081384 -118.45006935 48.37413597 -126.66015625 53.125 C-129.8208159 54.81960412 -133.11693036 56.05998255 -136.4609375 57.34375 C-139.40628905 58.52570337 -142.19517306 59.92919395 -145.015625 61.37890625 C-147.90864604 62.83149455 -150.89228335 64.05661931 -153.875 65.3125 C-154.50970215 65.60753418 -155.1444043 65.90256836 -155.79833984 66.20654297 C-161.74719897 68.96312894 -167.80168558 71.01109556 -174.0625 72.9375 C-175.97274541 73.53356851 -177.88290416 74.12991482 -179.79296875 74.7265625 C-180.68113281 75.00330811 -181.56929688 75.28005371 -182.484375 75.56518555 C-187.2868177 77.06643933 -191.91242644 78.67589984 -196.5 80.75 C-197.88058594 81.36681641 -197.88058594 81.36681641 -199.2890625 81.99609375 C-201.85253235 83.20750444 -201.85253235 83.20750444 -203.8359375 84.78515625 C-205.875 86.3125 -205.875 86.3125 -208.77734375 87.75390625 C-211.93021471 89.34028142 -214.60467454 91.15056605 -217.4375 93.25 C-218.34628906 93.91902344 -219.25507813 94.58804688 -220.19140625 95.27734375 C-223.80998919 98.02156749 -227.28594371 100.72344371 -230.5 103.9375 C-232.875 106.3125 -232.875 106.3125 -235.875 108.3125 C-237.38367752 112.87341527 -237.05879714 117.86682922 -237.0625 122.625 C-237.07474609 123.44162109 -237.08699219 124.25824219 -237.09960938 125.09960938 C-237.11539813 131.70457169 -236.63074467 137.67888299 -232.875 143.3125 C-232.45183111 144.7212429 -232.05828784 146.13907285 -231.6875 147.5625 C-229.99890487 152.86951326 -226.90006413 155.64420291 -222.875 159.3125 C-218.875 163.92788462 -218.875 163.92788462 -218.875 166.3125 C-217.864375 166.4775 -216.85375 166.6425 -215.8125 166.8125 C-211.36482419 168.04995819 -209.36669699 170.86975376 -206.5625 174.375 C-204.84714049 176.54020533 -204.84714049 176.54020533 -201.8125 178.1875 C-198.05963545 180.90233818 -196.59659343 184.01061734 -194.37890625 188.01171875 C-192.94473296 190.57563159 -192.94473296 190.57563159 -189.8125 192.125 C-185.63713338 195.23431557 -184.90594065 198.91777865 -183.2109375 203.73828125 C-179.71181967 213.09995615 -174.45887506 221.28823687 -168.37890625 229.16796875 C-166.875 231.3125 -166.875 231.3125 -166.875 233.3125 C-166.03775391 233.71662109 -166.03775391 233.71662109 -165.18359375 234.12890625 C-162.69821105 235.40313799 -160.32649055 236.80335395 -157.9375 238.25 C-156.68646484 239.00603516 -156.68646484 239.00603516 -155.41015625 239.77734375 C-153.69936833 240.81330623 -151.99372123 241.85779957 -150.29296875 242.91015625 C-143.30172695 246.96485061 -135.42391943 248.04650075 -127.55175781 249.31054688 C-121.97053679 250.21696321 -121.97053679 250.21696321 -120.875 251.3125 C-112.52095149 252.75031991 -104.01014782 252.62877255 -95.5546875 252.78930664 C-93.55190013 252.82904826 -91.5493702 252.88115687 -89.546875 252.93359375 C-87.76941895 252.97117798 -87.76941895 252.97117798 -85.95605469 253.00952148 C-83.04324337 253.29595562 -81.33813191 253.79336605 -78.875 255.3125 C-79.205 255.9725 -79.535 256.6325 -79.875 257.3125 C-84.42837144 257.19338 -88.9815628 257.06908318 -93.53466797 256.94018555 C-95.08052831 256.89712851 -96.62642731 256.85543574 -98.17236328 256.81518555 C-100.40669361 256.75676697 -102.64083444 256.69328733 -104.875 256.62890625 C-105.55554443 256.61219376 -106.23608887 256.59548126 -106.93725586 256.57826233 C-113.6133914 256.37653393 -119.67371329 255.89384861 -125.875 253.3125 C-128.01213798 252.92733371 -130.15958368 252.59651252 -132.3125 252.3125 C-147.37785349 250.32038714 -161.86571325 242.33599811 -171.97265625 230.94921875 C-176.11645001 225.52027225 -179.45740793 219.68812087 -182.6875 213.6875 C-183.24739624 212.64928101 -183.24739624 212.64928101 -183.81860352 211.59008789 C-185.71070859 207.95571769 -187.20102399 204.44046918 -188.390625 200.515625 C-189.53889152 196.89161622 -190.65163938 194.9565247 -193.8125 192.6875 C-196.59448682 190.50346299 -198.40715956 188.79051834 -200 185.625 C-202.1636589 181.80253594 -204.24551061 180.68277879 -207.875 178.3125 C-208.70757766 177.15331632 -209.4979165 175.96295621 -210.25 174.75 C-212.16355585 171.83351937 -213.470899 170.85148302 -216.8125 169.875 C-221.21612498 168.52257585 -222.8596264 166.23886539 -225.3671875 162.484375 C-226.93253104 160.22963146 -228.66768987 158.35701896 -230.5625 156.375 C-233.66592145 152.91008111 -235.02584425 149.78861799 -236.2578125 145.33984375 C-236.83894444 143.12057417 -236.83894444 143.12057417 -238.5 140.6875 C-241.62892934 135.28298569 -241.05740864 128.35453935 -241.0625 122.25 C-241.07474609 121.47333984 -241.08699219 120.69667969 -241.09960938 119.89648438 C-241.11539424 113.68251098 -240.60248538 108.86366219 -236.109375 104.234375 C-234.96091393 103.16297951 -233.79862574 102.10626901 -232.625 101.0625 C-232.0067334 100.50183838 -231.3884668 99.94117676 -230.75146484 99.36352539 C-222.25184684 91.79768337 -213.22952503 85.10626159 -202.875 80.3125 C-202.215 79.796875 -201.555 79.28125 -200.875 78.75 C-194.62960309 74.26112097 -185.77778938 72.60293611 -178.55859375 70.25390625 C-176.14316997 69.46111784 -173.72780726 68.66814334 -171.3125 67.875 C-170.09369141 67.47990234 -168.87488281 67.08480469 -167.61914062 66.67773438 C-166.44416016 66.29037109 -165.26917969 65.90300781 -164.05859375 65.50390625 C-162.99181396 65.15529541 -161.92503418 64.80668457 -160.82592773 64.44750977 C-157.92469932 63.33161576 -155.50078756 61.96203676 -152.875 60.3125 C-148.14492961 58.179331 -143.32594287 56.27997745 -138.5 54.375 C-131.78380778 51.65654124 -125.35878379 48.59389959 -118.92382812 45.2734375 C-111.11484316 41.30456444 -103.15601026 38.74560957 -94.73046875 36.375 C-91.91058376 35.32574047 -90.81745957 34.50654318 -88.875 32.3125 C-85.63096338 30.72499272 -82.48606642 29.49884168 -79.03125 28.4453125 C-73.1301413 26.64219595 -68.68110254 24.79258727 -63.9140625 20.87890625 C-60.78279218 18.47346679 -57.35623822 16.72604125 -53.8671875 14.89453125 C-51.76817086 13.78473786 -49.69141468 12.63229494 -47.6328125 11.44921875 C-41.00456037 7.68281195 -35.39052299 5.38985476 -27.875 4.3125 C-26.53713252 3.99785813 -25.20335814 3.66513799 -23.875 3.3125 C-15.87718029 1.27335961 -8.27209249 -0.05038373 0 0 Z " fill="#060606" transform="translate(636.875,341.6875)"/>
</svg>
